<svg width="24" height="24" viewBox="0 0 24 24" fill="none" xmlns="http://www.w3.org/2000/svg">
<path d="M5.35725 4.28564H18.643C19.3545 4.2856 20.0391 4.55783 20.5563 5.04651C21.0735 5.53518 21.3841 6.20324 21.4244 6.91364L21.4287 7.07136V16.9285C21.4287 17.64 21.1565 18.3246 20.6678 18.8418C20.1791 19.359 19.5111 19.6696 18.8007 19.7099L18.643 19.7142H5.35725C4.6457 19.7143 3.96111 19.442 3.44391 18.9534C2.9267 18.4647 2.6161 17.7966 2.57582 17.0862L2.57153 16.9285V7.07136C2.57149 6.35981 2.84372 5.67522 3.33239 5.15802C3.82107 4.64082 4.48913 4.33021 5.19953 4.28993L5.35725 4.28564H18.643H5.35725ZM20.143 9.34707L12.2967 13.4271C12.2207 13.4666 12.1375 13.4905 12.0522 13.4974C11.9668 13.5043 11.8809 13.4941 11.7995 13.4674L11.7035 13.4271L3.85725 9.34707V16.9285C3.85726 17.305 3.99882 17.6676 4.25383 17.9446C4.50884 18.2215 4.85865 18.3924 5.23382 18.4234L5.35725 18.4285H18.643C19.0195 18.4285 19.3823 18.2868 19.6593 18.0316C19.9362 17.7764 20.107 17.4264 20.1378 17.0511L20.143 16.9285V9.34707ZM18.643 5.57136H5.35725C4.9808 5.57137 4.61812 5.71293 4.3412 5.96794C4.06428 6.22295 3.89337 6.57276 3.86239 6.94793L3.85725 7.07136V7.89764L12.0001 12.1319L20.143 7.89764V7.07136C20.1429 6.69477 20.0013 6.33198 19.7461 6.05504C19.4909 5.7781 19.1409 5.60727 18.7655 5.5765L18.643 5.57136Z" fill="#D6D9DD"/>
</svg>
