<svg width="167" height="42" viewBox="0 0 167 42" fill="none" xmlns="http://www.w3.org/2000/svg">
<path d="M62.1708 28.6467C61.9812 28.8363 61.621 29.0069 61.0901 29.1585C60.5593 29.2912 59.9432 29.3576 59.2417 29.3576C57.6871 29.3576 56.7108 28.8931 56.3127 27.9642C55.3648 28.95 53.9145 29.4429 51.9618 29.4429C50.9191 29.4429 50.0565 29.2059 49.374 28.732C48.7104 28.2391 48.3787 27.5187 48.3787 26.5707C48.3787 25.3005 48.8716 24.3242 49.8574 23.6417C50.8432 22.9402 52.5684 22.4473 55.033 22.163L56.1705 22.0208V20.6273C56.1705 18.978 56.0473 17.8689 55.8008 17.3002C55.5543 16.7314 55.0614 16.4471 54.3221 16.4471C53.6016 16.4471 53.1372 16.5513 52.9286 16.7599C52.7201 16.9495 52.6443 17.177 52.7011 17.4424C52.758 17.6888 52.8528 18.0206 52.9855 18.4377C53.1182 18.8548 53.1846 19.1865 53.1846 19.433C53.1846 20.0207 52.976 20.5231 52.5589 20.9402C52.1608 21.3383 51.6679 21.5373 51.0802 21.5373C50.5115 21.5373 50.0185 21.3383 49.6015 20.9402C49.1844 20.5231 48.9758 20.0207 48.9758 19.433C48.9758 18.4661 49.4688 17.6414 50.4546 16.9589C51.4594 16.2575 52.9476 15.9068 54.9192 15.9068C56.9099 15.9068 58.3222 16.2954 59.1564 17.0727C60.0095 17.85 60.4361 19.2244 60.4361 21.1961V26.3148C60.4361 27.3196 60.5593 27.9547 60.8058 28.2201C61.0522 28.4666 61.5072 28.514 62.1708 28.3623V28.6467ZM52.3314 26.002C52.4262 26.7224 52.6917 27.2817 53.1277 27.6798C53.5637 28.059 54.0661 28.2485 54.6349 28.2485C55.2226 28.2485 55.7344 27.9642 56.1705 27.3954V22.5611L55.1467 22.7033C54.2747 22.817 53.5637 23.1488 53.0139 23.6986C52.4831 24.2484 52.2556 25.0162 52.3314 26.002Z" fill="#01B3F8"/>
<path d="M87.7621 28.6467H89.184V29.2154H82.0747V28.6467H83.4965V20.6842C83.4965 19.3382 83.2975 18.3808 82.8993 17.8121C82.5012 17.2433 81.904 16.9589 81.1078 16.9589C80.6528 16.9589 80.1788 17.0916 79.6859 17.3571C79.193 17.6225 78.7854 17.9922 78.4631 18.4661C78.6906 19.1486 78.8044 20.0965 78.8044 21.3098V28.6467H80.2262V29.2154H72.8325V28.6467H74.5388V20.6842C74.5388 19.3382 74.3397 18.3808 73.9416 17.8121C73.5435 17.2433 72.9463 16.9589 72.15 16.9589C71.0694 16.9589 70.2068 17.5277 69.5622 18.6652V28.6467H70.9841V29.2154H63.8748V28.6467H65.2966V16.703H63.8748V16.1343H69.5622V17.613C69.9224 17.1201 70.4817 16.703 71.24 16.3617C72.0173 16.0015 72.8515 15.8214 73.7425 15.8214C75.9986 15.8214 77.4678 16.4565 78.1503 17.7267C78.6432 17.1201 79.2973 16.6556 80.1125 16.3333C80.9277 15.9921 81.7903 15.8214 82.7003 15.8214C86.0748 15.8214 87.7621 17.6509 87.7621 21.3098V28.6467Z" fill="#01B3F8"/>
<path d="M90.8891 22.6748C90.8891 20.4378 91.5432 18.741 92.8513 17.5846C94.1594 16.4281 95.8183 15.8499 97.8278 15.8499C99.8563 15.8499 101.364 16.3617 102.349 17.3855C103.335 18.3903 103.686 19.433 103.402 20.5136C103.25 21.1013 102.928 21.5373 102.435 21.8217C101.961 22.0871 101.439 22.1535 100.871 22.0208C99.6762 21.7364 99.0791 21.0444 99.0791 19.9449C99.0791 19.6605 99.1075 19.2339 99.1644 18.6652C99.2402 18.0775 99.2686 17.6509 99.2497 17.3855C99.2307 17.1201 99.1739 16.9115 99.0791 16.7599C98.8895 16.4376 98.444 16.3144 97.7425 16.3902C96.0363 16.6556 95.1832 18.7505 95.1832 22.6748C95.1832 26.5802 96.5766 28.5329 99.3634 28.5329C100.008 28.5329 100.662 28.3623 101.326 28.021C101.989 27.6798 102.482 27.2722 102.804 26.7982L103.202 27.0826C102.766 27.803 102.112 28.3813 101.24 28.8173C100.368 29.2533 99.3919 29.4714 98.3113 29.4714C93.3632 29.4714 90.8891 27.2058 90.8891 22.6748Z" fill="#01B3F8"/>
<path d="M110.168 27.5092C110.585 28.4571 111.305 28.931 112.329 28.931C113.353 28.931 114.082 28.4476 114.519 27.4807C114.955 26.5139 115.173 24.9214 115.173 22.7033C115.173 20.4662 114.955 18.8642 114.519 17.8974C114.082 16.9115 113.353 16.4186 112.329 16.4186C111.305 16.4186 110.585 16.9115 110.168 17.8974C109.751 18.8642 109.542 20.4662 109.542 22.7033C109.542 24.9403 109.751 26.5423 110.168 27.5092ZM112.272 29.4998C110.471 29.4998 108.841 28.9121 107.381 27.7367C105.921 26.5613 105.191 24.8929 105.191 22.7317C105.191 21.5753 105.4 20.542 105.817 19.632C106.253 18.722 106.821 18.0016 107.523 17.4708C108.243 16.94 109.011 16.5419 109.826 16.2764C110.642 15.9921 111.476 15.8499 112.329 15.8499C113.182 15.8499 114.016 15.9921 114.831 16.2764C115.665 16.5419 116.433 16.94 117.135 17.4708C117.855 18.0016 118.433 18.722 118.869 19.632C119.305 20.542 119.523 21.5658 119.523 22.7033C119.523 23.8408 119.305 24.855 118.869 25.7461C118.433 26.6371 117.855 27.348 117.135 27.8789C115.694 28.9595 114.073 29.4998 112.272 29.4998Z" fill="#01B3F8"/>
<path d="M135.348 16.1343V16.703H133.954L128.636 29.2154H128.124L121.811 16.703H120.674V16.1343H128.068V16.703H126.646L130.172 24.0967L133.328 16.703H131.082V16.1343H135.348Z" fill="#01B3F8"/>
<path d="M150.565 28.6467C150.376 28.8363 150.015 29.0069 149.485 29.1585C148.954 29.2912 148.338 29.3576 147.636 29.3576C146.082 29.3576 145.105 28.8931 144.707 27.9642C143.759 28.95 142.309 29.4429 140.356 29.4429C139.314 29.4429 138.451 29.2059 137.768 28.732C137.105 28.2391 136.773 27.5187 136.773 26.5707C136.773 25.3005 137.266 24.3242 138.252 23.6417C139.238 22.9402 140.963 22.4473 143.427 22.163L144.565 22.0208V20.6273C144.565 18.978 144.442 17.8689 144.195 17.3002C143.949 16.7314 143.456 16.4471 142.717 16.4471C141.996 16.4471 141.532 16.5513 141.323 16.7599C141.115 16.9495 141.039 17.177 141.096 17.4424C141.153 17.6888 141.247 18.0206 141.38 18.4377C141.513 18.8548 141.579 19.1865 141.579 19.433C141.579 20.0207 141.371 20.5231 140.953 20.9402C140.555 21.3383 140.062 21.5373 139.475 21.5373C138.906 21.5373 138.413 21.3383 137.996 20.9402C137.579 20.5231 137.37 20.0207 137.37 19.433C137.37 18.4661 137.863 17.6414 138.849 16.9589C139.854 16.2575 141.342 15.9068 143.314 15.9068C145.304 15.9068 146.717 16.2954 147.551 17.0727C148.404 17.85 148.831 19.2244 148.831 21.1961V26.3148C148.831 27.3196 148.954 27.9547 149.2 28.2201C149.447 28.4666 149.902 28.514 150.565 28.3623V28.6467ZM140.726 26.002C140.821 26.7224 141.086 27.2817 141.522 27.6798C141.958 28.059 142.461 28.2485 143.029 28.2485C143.617 28.2485 144.129 27.9642 144.565 27.3954V22.5611L143.541 22.7033C142.669 22.817 141.958 23.1488 141.408 23.6986C140.878 24.2484 140.65 25.0162 140.726 26.002Z" fill="#01B3F8"/>
<path d="M157.644 29.5567C156.108 29.5567 154.781 28.95 153.663 27.7367C152.544 26.5234 151.985 24.8076 151.985 22.5895C151.985 20.3714 152.535 18.6367 153.634 17.3855C154.734 16.1343 156.07 15.5086 157.644 15.5086C158.421 15.5086 159.151 15.6698 159.834 15.9921C160.516 16.3144 161.009 16.7978 161.312 17.4424V10.7312H159.89V10.1624H165.578V28.6467H167V29.2154H161.312V27.9073C160.8 29.0069 159.578 29.5567 157.644 29.5567ZM161.312 22.9876V18.2955C160.8 17.2717 160.127 16.7599 159.293 16.7599C158.478 16.7599 157.777 17.2338 157.189 18.1817C156.601 19.1296 156.307 20.6368 156.307 22.7033C156.307 24.7508 156.611 26.2485 157.217 27.1964C157.824 28.1443 158.554 28.5519 159.407 28.4192C159.881 28.3433 160.241 28.1917 160.488 27.9642C161.037 27.4333 161.312 25.7745 161.312 22.9876Z" fill="#01B3F8"/>
<path fill-rule="evenodd" clip-rule="evenodd" d="M20.7944 41.5887C32.2788 41.5887 41.5888 32.2788 41.5888 20.7943C41.5888 9.30991 32.2788 -6.10352e-05 20.7944 -6.10352e-05C9.30997 -6.10352e-05 0 9.30991 0 20.7943C0 32.2788 9.30997 41.5887 20.7944 41.5887ZM20.7945 39.1297C30.9209 39.1297 39.1299 30.9206 39.1299 20.7943C39.1299 10.6679 30.9209 2.45885 20.7945 2.45885C10.6681 2.45885 2.45907 10.6679 2.45907 20.7943C2.45907 30.9206 10.6681 39.1297 20.7945 39.1297Z" fill="#01B3F8"/>
<path fill-rule="evenodd" clip-rule="evenodd" d="M20.7943 35.8154C29.0903 35.8154 35.8155 29.0902 35.8155 20.7943C35.8155 12.4983 29.0903 5.77313 20.7943 5.77313C12.4984 5.77313 5.77319 12.4983 5.77319 20.7943C5.77319 29.0902 12.4984 35.8154 20.7943 35.8154ZM20.7944 32.5011C27.2599 32.5011 32.5012 27.2598 32.5012 20.7942C32.5012 14.3287 27.2599 9.08737 20.7944 9.08737C14.3288 9.08737 9.08748 14.3287 9.08748 20.7942C9.08748 27.2598 14.3288 32.5011 20.7944 32.5011Z" fill="#01B3F8"/>
<rect x="19.1924" y="0.551208" width="3.20394" height="40.4861" fill="#01B3F8"/>
<rect x="0.55127" y="22.3962" width="3.20394" height="40.4861" transform="rotate(-90 0.55127 22.3962)" fill="#01B3F8"/>
<rect x="34.1245" y="5.21881" width="3.20736" height="40.7389" transform="rotate(45 34.1245 5.21881)" fill="#01B3F8"/>
<rect x="5.23389" y="7.5863" width="3.20736" height="40.6863" transform="rotate(-45 5.23389 7.5863)" fill="#01B3F8"/>
<path fill-rule="evenodd" clip-rule="evenodd" d="M20.7941 29.8284C25.7835 29.8284 29.8281 25.7837 29.8281 20.7943C29.8281 15.8049 25.7835 11.7603 20.7941 11.7603C15.8047 11.7603 11.76 15.8049 11.76 20.7943C11.76 25.7837 15.8047 29.8284 20.7941 29.8284ZM20.7941 27.0486C24.2483 27.0486 27.0485 24.2484 27.0485 20.7942C27.0485 17.34 24.2483 14.5399 20.7941 14.5399C17.3399 14.5399 14.5398 17.34 14.5398 20.7942C14.5398 24.2484 17.3399 27.0486 20.7941 27.0486Z" fill="#01B3F8"/>
<circle cx="20.7409" cy="20.8477" r="6.52164" fill="white"/>
<path fill-rule="evenodd" clip-rule="evenodd" d="M19.6753 15.9547C19.0617 16.1211 18.5828 16.569 18.3589 17.1859C18.2808 17.401 18.2723 17.5162 18.2563 18.561L18.2389 19.7014H18.0603C17.9621 19.7014 17.8088 19.7231 17.7197 19.7496C17.5033 19.814 17.177 20.1426 17.1131 20.3604C17.045 20.5926 17.045 24.5219 17.1131 24.7541C17.177 24.9719 17.5033 25.3005 17.7197 25.3649C17.9524 25.4341 23.7406 25.4341 23.9733 25.3649C24.1897 25.3005 24.516 24.9719 24.5799 24.7541C24.6471 24.5249 24.6481 20.592 24.581 20.3663C24.5552 20.2798 24.4575 20.1231 24.3639 20.0182C24.1717 19.803 23.9395 19.7014 23.6401 19.7014H23.4541L23.4367 18.561C23.4207 17.5162 23.4122 17.401 23.3341 17.1859C23.1071 16.5604 22.6279 16.1172 22.0009 15.9527C21.6906 15.8713 19.9773 15.8728 19.6753 15.9547ZM21.9007 17.275C22.1548 17.4575 22.1647 17.5068 22.1783 18.6602L22.1905 19.7014H20.8489H19.5073L19.509 18.7197C19.5111 17.5231 19.5429 17.3933 19.8746 17.2257C19.9799 17.1724 20.1395 17.164 20.8859 17.1725C21.7427 17.1823 21.7764 17.1857 21.9007 17.275ZM21.2792 21.1044C21.6912 21.379 21.7476 21.9671 21.3959 22.3214L21.2404 22.4779V23.2486C21.2404 24.1659 21.2501 24.1438 20.8465 24.1438C20.4429 24.1438 20.4526 24.1659 20.4526 23.2486V22.4779L20.2976 22.3218C19.9821 22.0041 19.9814 21.5245 20.2961 21.2076C20.3805 21.1226 20.5079 21.0351 20.5791 21.0131C20.7856 20.9495 21.1102 20.9918 21.2792 21.1044Z" fill="#01B3F8"/>
</svg>
