<svg width="20" height="20" viewBox="0 0 20 20" fill="none" xmlns="http://www.w3.org/2000/svg">
<path d="M17.475 0.833328H15.025C13.9667 0.833328 13.3334 1.46666 13.3334 2.52499V4.975C13.3334 6.03333 13.9667 6.66666 15.025 6.66666H17.475C18.5334 6.66666 19.1667 6.03333 19.1667 4.975V2.52499C19.1667 1.46666 18.5334 0.833328 17.475 0.833328ZM17.6584 3.59166C17.5584 3.69166 17.425 3.74166 17.2917 3.74166C17.1584 3.74166 17.025 3.69166 16.925 3.59166L16.775 3.44166V5.30833C16.775 5.6 16.5417 5.83333 16.25 5.83333C15.9584 5.83333 15.725 5.6 15.725 5.30833V3.44166L15.575 3.59166C15.375 3.79166 15.0417 3.79166 14.8417 3.59166C14.6417 3.39166 14.6417 3.05833 14.8417 2.85833L15.8834 1.81666C15.925 1.775 15.9834 1.74166 16.0417 1.71666C16.0584 1.70833 16.075 1.70833 16.0917 1.69999C16.1334 1.68333 16.175 1.67499 16.225 1.67499C16.2417 1.67499 16.2584 1.67499 16.275 1.67499C16.3334 1.67499 16.3834 1.68333 16.4417 1.70833C16.45 1.70833 16.45 1.70833 16.4584 1.70833C16.5167 1.73333 16.5667 1.76666 16.6084 1.80833C16.6167 1.81666 16.6167 1.81666 16.625 1.81666L17.6667 2.85833C17.8667 3.05833 17.8667 3.39166 17.6584 3.59166Z" fill="#344055"/>
<path opacity="0.4" d="M18.3333 6.475V7.5H1.66663V6.28333C1.66663 4.37499 3.21663 2.83333 5.12496 2.83333H13.3333V4.97499C13.3333 6.03333 13.9666 6.66666 15.025 6.66666H17.475C17.8083 6.66666 18.0916 6.60833 18.3333 6.475Z" fill="#344055"/>
<path d="M1.66663 7.5V13.7167C1.66663 15.625 3.21663 17.1667 5.12496 17.1667H14.875C16.7833 17.1667 18.3333 15.625 18.3333 13.7167V7.5H1.66663ZM6.66663 14.375H4.99996C4.65829 14.375 4.37496 14.0917 4.37496 13.75C4.37496 13.4083 4.65829 13.125 4.99996 13.125H6.66663C7.00829 13.125 7.29163 13.4083 7.29163 13.75C7.29163 14.0917 7.00829 14.375 6.66663 14.375ZM12.0833 14.375H8.74996C8.40829 14.375 8.12496 14.0917 8.12496 13.75C8.12496 13.4083 8.40829 13.125 8.74996 13.125H12.0833C12.425 13.125 12.7083 13.4083 12.7083 13.75C12.7083 14.0917 12.425 14.375 12.0833 14.375Z" fill="#344055"/>
</svg>
