<svg width="119" height="80" viewBox="0 0 119 80" fill="none" xmlns="http://www.w3.org/2000/svg">
<path d="M1.16748 52.0362C1.16748 52.0362 16.6571 33.4965 30.5611 30.7511C41.1337 28.6635 47.2725 35.9127 57.9277 34.2986C74.4264 31.7993 77.5868 13.947 93.9096 10.4797C103.008 8.54683 117.222 10.4796 117.222 10.4796" stroke="#01B3F8" stroke-width="2.02715" stroke-linecap="round"/>
<path d="M31.0679 30.5966C17.1638 33.342 1.67419 51.8816 1.67419 51.8816V79.4027H117.729V10.3251C117.729 10.3251 103.515 8.39229 94.4163 10.3251C78.0935 13.7925 74.9332 31.6448 58.4344 34.1441C47.7792 35.7581 41.6404 28.5089 31.0679 30.5966Z" fill="url(#paint0_linear_1522_258)"/>
<path d="M47.0621 10.0094C46.9946 10.0094 46.9371 9.98576 46.8898 9.93846C46.8425 9.89116 46.8189 9.83372 46.8189 9.76615V7.78968H44.8728C44.8052 7.78968 44.7478 7.76603 44.7005 7.71873C44.6532 7.67143 44.6295 7.61399 44.6295 7.54642V7.00923C44.6295 6.9349 44.6532 6.87746 44.7005 6.83692C44.7478 6.78962 44.8052 6.76597 44.8728 6.76597H46.8189V4.84018C46.8189 4.7726 46.8425 4.71517 46.8898 4.66787C46.9371 4.62057 46.9946 4.59692 47.0621 4.59692H47.65C47.7243 4.59692 47.7818 4.62057 47.8223 4.66787C47.8696 4.71517 47.8933 4.7726 47.8933 4.84018V6.76597H49.8393C49.9069 6.76597 49.9643 6.78962 50.0116 6.83692C50.0589 6.87746 50.0826 6.9349 50.0826 7.00923V7.54642C50.0826 7.61399 50.0589 7.67143 50.0116 7.71873C49.9643 7.76603 49.9069 7.78968 49.8393 7.78968H47.8933V9.76615C47.8933 9.83372 47.8696 9.89116 47.8223 9.93846C47.7818 9.98576 47.7243 10.0094 47.65 10.0094H47.0621ZM50.9421 10.3439C50.8745 10.3439 50.817 10.3202 50.7697 10.2729C50.7224 10.2256 50.6988 10.1682 50.6988 10.1006V9.58371C50.6988 9.52289 50.7123 9.45194 50.7393 9.37086C50.7731 9.28301 50.8441 9.19517 50.9522 9.10733L52.5536 7.51601C52.9996 7.16464 53.3577 6.86733 53.628 6.62407C53.9051 6.37405 54.1044 6.14769 54.226 5.94497C54.3544 5.7355 54.4186 5.52941 54.4186 5.32669C54.4186 5.02262 54.3342 4.77598 54.1652 4.58678C54.0031 4.39758 53.7429 4.30298 53.3848 4.30298C53.1483 4.30298 52.9489 4.35366 52.7868 4.45502C52.6246 4.54962 52.4962 4.678 52.4016 4.84018C52.3138 5.00235 52.2529 5.18141 52.2192 5.37737C52.2056 5.46521 52.1685 5.52603 52.1077 5.55981C52.0469 5.5936 51.986 5.61049 51.9252 5.61049H51.0231C50.9623 5.61049 50.9116 5.59022 50.8711 5.54968C50.8306 5.50914 50.8103 5.46184 50.8103 5.40778C50.817 5.11722 50.8779 4.8368 50.9927 4.56651C51.1076 4.28947 51.2732 4.04621 51.4894 3.83674C51.7124 3.62051 51.9827 3.4482 52.3002 3.31981C52.6178 3.19143 52.976 3.12724 53.3746 3.12724C53.9355 3.12724 54.3983 3.22184 54.7632 3.41104C55.1349 3.60024 55.4119 3.85701 55.5944 4.18135C55.7836 4.5057 55.8782 4.87058 55.8782 5.27601C55.8782 5.5936 55.8173 5.88754 55.6957 6.15782C55.5741 6.42135 55.3984 6.67813 55.1687 6.92814C54.9389 7.1714 54.6619 7.42141 54.3375 7.67819L52.8983 9.13773H55.7869C55.8613 9.13773 55.9187 9.16138 55.9592 9.20868C56.0065 9.24923 56.0302 9.30666 56.0302 9.38099V10.1006C56.0302 10.1682 56.0065 10.2256 55.9592 10.2729C55.9187 10.3202 55.8613 10.3439 55.7869 10.3439H50.9421ZM57.6331 10.3439C57.4912 10.3439 57.4202 10.2763 57.4202 10.1412C57.4202 10.1006 57.4337 10.0635 57.4608 10.0297L62.4577 3.44144C62.505 3.38063 62.5523 3.33333 62.5996 3.29954C62.6469 3.26576 62.7145 3.24886 62.8023 3.24886H63.3395C63.4814 3.24886 63.5523 3.31644 63.5523 3.45158C63.5523 3.49212 63.5388 3.52929 63.5118 3.56307L58.5149 10.1513C58.4676 10.2121 58.4203 10.2594 58.373 10.2932C58.3324 10.327 58.2649 10.3439 58.1703 10.3439H57.6331ZM62.5084 10.4047C62.0556 10.4047 61.6975 10.2797 61.434 10.0297C61.1704 9.77966 61.0252 9.45194 60.9981 9.04651C60.9914 8.87083 60.988 8.71879 60.988 8.5904C60.988 8.46202 60.9914 8.30322 60.9981 8.11402C61.0252 7.70859 61.1637 7.38087 61.4137 7.13086C61.6705 6.88084 62.0354 6.75583 62.5084 6.75583C62.9881 6.75583 63.353 6.88084 63.603 7.13086C63.8598 7.38087 63.9983 7.70859 64.0186 8.11402C64.0321 8.30322 64.0389 8.46202 64.0389 8.5904C64.0389 8.71879 64.0321 8.87083 64.0186 9.04651C63.9983 9.45194 63.853 9.77966 63.5828 10.0297C63.3192 10.2797 62.9611 10.4047 62.5084 10.4047ZM62.5084 9.61411C62.657 9.61411 62.7719 9.58371 62.853 9.52289C62.9408 9.46208 63.005 9.38437 63.0456 9.28977C63.0861 9.19517 63.1064 9.10057 63.1064 9.00597C63.1199 8.83704 63.1266 8.69514 63.1266 8.58027C63.1266 8.45864 63.1199 8.32012 63.1064 8.1647C63.0996 8.00929 63.0523 7.86739 62.9645 7.739C62.8766 7.60386 62.7246 7.53629 62.5084 7.53629C62.2989 7.53629 62.1502 7.60386 62.0624 7.739C61.9746 7.86739 61.9239 8.00929 61.9104 8.1647C61.9036 8.32012 61.9002 8.45864 61.9002 8.58027C61.9002 8.69514 61.9036 8.83704 61.9104 9.00597C61.9239 9.10057 61.9475 9.19517 61.9813 9.28977C62.0219 9.38437 62.0827 9.46208 62.1638 9.52289C62.2516 9.58371 62.3665 9.61411 62.5084 9.61411ZM58.4642 6.81665C58.0115 6.81665 57.6533 6.6984 57.3898 6.4619C57.1263 6.2254 56.981 5.90443 56.954 5.499C56.9472 5.32331 56.9438 5.17128 56.9438 5.04289C56.9438 4.90775 56.9472 4.74558 56.954 4.55638C56.981 4.15095 57.1195 3.82322 57.3695 3.57321C57.6263 3.32319 57.9912 3.19819 58.4642 3.19819C58.944 3.19819 59.3088 3.32319 59.5589 3.57321C59.8156 3.82322 59.9542 4.15095 59.9744 4.55638C59.9879 4.74558 59.9947 4.90775 59.9947 5.04289C59.9947 5.17128 59.9879 5.32331 59.9744 5.499C59.9542 5.90443 59.8089 6.2254 59.5386 6.4619C59.2751 6.6984 58.9169 6.81665 58.4642 6.81665ZM58.4642 6.0666C58.6129 6.0666 58.7277 6.03619 58.8088 5.97538C58.8967 5.91457 58.9609 5.83686 59.0014 5.74226C59.0419 5.64766 59.0622 5.54968 59.0622 5.44832C59.0757 5.27939 59.0825 5.13749 59.0825 5.02262C59.0825 4.90099 59.0757 4.76247 59.0622 4.60705C59.0555 4.45164 59.0082 4.30974 58.9203 4.18135C58.8325 4.05297 58.6804 3.98877 58.4642 3.98877C58.2547 3.98877 58.1061 4.05297 58.0182 4.18135C57.9304 4.30974 57.8831 4.45164 57.8763 4.60705C57.8696 4.76247 57.8662 4.90099 57.8662 5.02262C57.8662 5.13749 57.8696 5.27939 57.8763 5.44832C57.8831 5.54968 57.9034 5.64766 57.9371 5.74226C57.9777 5.83686 58.0385 5.91457 58.1196 5.97538C58.2074 6.03619 58.3223 6.0666 58.4642 6.0666Z" fill="#01B3F8"/>
<path d="M53.3666 17.5747L55.3937 15.5475M55.3937 15.5475L57.4209 17.5747M55.3937 15.5475V22.6425" stroke="#01B3F8" stroke-width="1.01357" stroke-linecap="round" stroke-linejoin="round"/>
<defs>
<linearGradient id="paint0_linear_1522_258" x1="59.9547" y1="-15.8733" x2="82.2534" y2="44.4344" gradientUnits="userSpaceOnUse">
<stop stop-color="#01B3F8"/>
<stop offset="1" stop-color="white" stop-opacity="0"/>
</linearGradient>
</defs>
</svg>
