<svg width="119" height="80" viewBox="0 0 119 80" fill="none" xmlns="http://www.w3.org/2000/svg">
<path d="M1.16748 52.0362C1.16748 52.0362 16.6571 33.4965 30.5611 30.7511C41.1337 28.6635 47.2725 35.9127 57.9277 34.2986C74.4264 31.7993 77.5868 13.947 93.9096 10.4797C103.008 8.54683 117.222 10.4796 117.222 10.4796" stroke="#01B3F8" stroke-width="2.02715" stroke-linecap="round"/>
<path d="M31.068 30.5966C17.1639 33.342 1.67432 51.8816 1.67432 51.8816V79.4027H117.729V10.3251C117.729 10.3251 103.515 8.39229 94.4164 10.3251C78.0936 13.7925 74.9333 31.6448 58.4345 34.1441C47.7793 35.7581 41.6406 28.5089 31.068 30.5966Z" fill="url(#paint0_linear_1557_682)"/>
<path d="M47.1347 9.10571V4.2394H48.1029V9.10571H47.1347ZM45.1874 7.15487V6.19025H50.0537V7.15487H45.1874ZM54.1372 10.4447C53.6861 10.4447 53.2805 10.3583 52.9206 10.1855C52.5631 10.0103 52.2775 9.77039 52.064 9.46565C51.8504 9.1609 51.7364 8.81297 51.722 8.42184H52.8018C52.8282 8.73858 52.9686 8.99893 53.2229 9.2029C53.4773 9.40686 53.782 9.50884 54.1372 9.50884C54.4203 9.50884 54.6711 9.44405 54.8894 9.31448C55.1102 9.1825 55.283 9.00133 55.4077 8.77097C55.5349 8.54062 55.5985 8.27786 55.5985 7.98272C55.5985 7.68277 55.5337 7.41522 55.4041 7.18007C55.2746 6.94491 55.0958 6.76014 54.8678 6.62577C54.6423 6.49139 54.3831 6.423 54.0904 6.4206C53.8672 6.4206 53.6429 6.459 53.4173 6.53578C53.1917 6.61257 53.0094 6.71335 52.8702 6.83813L51.8516 6.68696L52.2655 2.97243H56.3184V3.92626H53.1905L52.9566 5.98868H52.9998C53.1438 5.84951 53.3345 5.73313 53.5721 5.63955C53.812 5.54596 54.0688 5.49917 54.3423 5.49917C54.7911 5.49917 55.1906 5.60595 55.5409 5.81951C55.8937 6.03308 56.1708 6.32462 56.3724 6.69415C56.5763 7.06129 56.6771 7.48361 56.6747 7.96112C56.6771 8.43864 56.5691 8.86456 56.3508 9.23889C56.1348 9.61322 55.8349 9.90837 55.4509 10.1243C55.0694 10.3379 54.6315 10.4447 54.1372 10.4447ZM61.8371 8.96174V8.57301C61.8371 8.29466 61.8947 8.04031 62.0098 7.80995C62.1274 7.57719 62.2978 7.39123 62.5209 7.25205C62.7465 7.11048 63.0189 7.03969 63.338 7.03969C63.6643 7.03969 63.9379 7.10928 64.1586 7.24845C64.3794 7.38763 64.5462 7.57359 64.659 7.80635C64.7741 8.03911 64.8317 8.29466 64.8317 8.57301V8.96174C64.8317 9.24009 64.7741 9.49564 64.659 9.7284C64.5438 9.95876 64.3746 10.1447 64.1514 10.2863C63.9307 10.4255 63.6595 10.4951 63.338 10.4951C63.0141 10.4951 62.7405 10.4255 62.5173 10.2863C62.2942 10.1447 62.125 9.95876 62.0098 9.7284C61.8947 9.49564 61.8371 9.24009 61.8371 8.96174ZM62.6757 8.57301V8.96174C62.6757 9.1681 62.7249 9.35527 62.8233 9.52324C62.9217 9.69121 63.0932 9.77519 63.338 9.77519C63.5804 9.77519 63.7495 9.69121 63.8455 9.52324C63.9415 9.35527 63.9895 9.1681 63.9895 8.96174V8.57301C63.9895 8.36665 63.9427 8.17948 63.8491 8.01151C63.7579 7.84354 63.5875 7.75956 63.338 7.75956C63.098 7.75956 62.9277 7.84354 62.8269 8.01151C62.7261 8.17948 62.6757 8.36665 62.6757 8.57301ZM58.1297 4.74331V4.35458C58.1297 4.07623 58.1873 3.82068 58.3025 3.58792C58.4201 3.35517 58.5905 3.1692 58.8136 3.03002C59.0392 2.89085 59.3115 2.82126 59.6307 2.82126C59.957 2.82126 60.2306 2.89085 60.4513 3.03002C60.6721 3.1692 60.8389 3.35517 60.9516 3.58792C61.0644 3.82068 61.1208 4.07623 61.1208 4.35458V4.74331C61.1208 5.02166 61.0632 5.27721 60.948 5.50997C60.8353 5.74033 60.6673 5.92629 60.4441 6.06787C60.2234 6.20704 59.9522 6.27663 59.6307 6.27663C59.3043 6.27663 59.0296 6.20704 58.8064 6.06787C58.5857 5.92629 58.4177 5.74033 58.3025 5.50997C58.1873 5.27721 58.1297 5.02166 58.1297 4.74331ZM58.972 4.35458V4.74331C58.972 4.94967 59.02 5.13684 59.116 5.30481C59.2143 5.47278 59.3859 5.55676 59.6307 5.55676C59.8706 5.55676 60.0386 5.47278 60.1346 5.30481C60.233 5.13684 60.2822 4.94967 60.2822 4.74331V4.35458C60.2822 4.14822 60.2354 3.96105 60.1418 3.79309C60.0482 3.62512 59.8778 3.54113 59.6307 3.54113C59.3907 3.54113 59.2203 3.62512 59.1196 3.79309C59.0212 3.96105 58.972 4.14822 58.972 4.35458ZM58.4717 10.3439L63.5396 2.97243H64.3998L59.3319 10.3439H58.4717Z" fill="#01B3F8"/>
<path d="M53.3665 17.5747L55.3936 15.5475M55.3936 15.5475L57.4208 17.5747M55.3936 15.5475V22.6425" stroke="#01B3F8" stroke-width="1.01357" stroke-linecap="round" stroke-linejoin="round"/>
<defs>
<linearGradient id="paint0_linear_1557_682" x1="37.6562" y1="-10.8054" x2="62.4888" y2="52.543" gradientUnits="userSpaceOnUse">
<stop stop-color="#01B3F8"/>
<stop offset="1" stop-color="white" stop-opacity="0"/>
</linearGradient>
</defs>
</svg>
