<svg width="20" height="20" viewBox="0 0 20 20" fill="none" xmlns="http://www.w3.org/2000/svg">
<path d="M13.875 16.8333V17.075C12.6416 17.8667 11.1666 18.3333 9.58331 18.3333C7.97498 18.3333 6.47498 17.85 5.22498 17.025V16.8333C5.22498 14.8917 7.16664 13.3083 9.54997 13.3083C11.9416 13.3083 13.875 14.8917 13.875 16.8333Z" fill="#344055"/>
<path opacity="0.4" d="M17.5 10.4167C17.5 13.2083 16.0583 15.6583 13.875 17.075V16.8333C13.875 14.8917 11.9416 13.3083 9.54996 13.3083C7.16663 13.3083 5.22496 14.8917 5.22496 16.8333V17.025C3.08329 15.6083 1.66663 13.1833 1.66663 10.4167C1.66663 6.04167 5.20829 2.5 9.58329 2.5C10.675 2.5 11.7166 2.71666 12.6666 3.11666C12.5583 3.44999 12.5 3.8 12.5 4.16667C12.5 4.79167 12.675 5.38333 12.9833 5.88333C13.15 6.16666 13.3666 6.42498 13.6166 6.64164C14.2 7.17498 14.975 7.5 15.8333 7.5C16.2 7.5 16.55 7.44165 16.875 7.32498C17.275 8.27498 17.5 9.325 17.5 10.4167Z" fill="#344055"/>
<path d="M18.3083 1.94168C17.7083 1.25835 16.8167 0.833333 15.8333 0.833333C14.9 0.833333 14.05 1.21669 13.4417 1.84169C13.0917 2.20002 12.825 2.63333 12.6667 3.11666C12.5583 3.44999 12.5 3.8 12.5 4.16667C12.5 4.79167 12.675 5.38333 12.9833 5.88333C13.15 6.16666 13.3667 6.42498 13.6167 6.64164C14.2 7.17498 14.975 7.5 15.8333 7.5C16.2 7.5 16.55 7.44165 16.875 7.32498C17.6417 7.08331 18.2833 6.55833 18.6833 5.88333C18.8583 5.6 18.9917 5.27499 19.0667 4.94166C19.1333 4.69166 19.1667 4.43333 19.1667 4.16667C19.1667 3.31667 18.8417 2.53335 18.3083 1.94168ZM17.075 4.77498H16.4583V5.42501C16.4583 5.76667 16.175 6.05001 15.8333 6.05001C15.4917 6.05001 15.2083 5.76667 15.2083 5.42501V4.77498H14.5917C14.25 4.77498 13.9667 4.49165 13.9667 4.14998C13.9667 3.80832 14.25 3.52498 14.5917 3.52498H15.2083V2.93335C15.2083 2.59168 15.4917 2.30835 15.8333 2.30835C16.175 2.30835 16.4583 2.59168 16.4583 2.93335V3.52498H17.075C17.4167 3.52498 17.7 3.80832 17.7 4.14998C17.7 4.49165 17.425 4.77498 17.075 4.77498Z" fill="#344055"/>
<path d="M9.55004 12.275C10.8433 12.275 11.8917 11.2266 11.8917 9.93332C11.8917 8.64005 10.8433 7.59165 9.55004 7.59165C8.25677 7.59165 7.20837 8.64005 7.20837 9.93332C7.20837 11.2266 8.25677 12.275 9.55004 12.275Z" fill="#292D32"/>
</svg>
