<svg width="20" height="20" viewBox="0 0 20 20" fill="none" xmlns="http://www.w3.org/2000/svg">
<path opacity="0.4" d="M17.0834 8.49166H14.675C12.7 8.49166 11.0917 6.88332 11.0917 4.90832V2.49999C11.0917 2.04166 10.7167 1.66666 10.2584 1.66666H6.72504C4.15837 1.66666 2.08337 3.33332 2.08337 6.30832V13.6917C2.08337 16.6667 4.15837 18.3333 6.72504 18.3333H13.275C15.8417 18.3333 17.9167 16.6667 17.9167 13.6917V9.32499C17.9167 8.86666 17.5417 8.49166 17.0834 8.49166Z" fill="#344055"/>
<path d="M13.1666 1.84167C12.8249 1.5 12.2333 1.73334 12.2333 2.20834V5.11667C12.2333 6.33334 13.2666 7.34167 14.5249 7.34167C15.3166 7.35 16.4166 7.35 17.3583 7.35C17.8333 7.35 18.0833 6.79167 17.7499 6.45834C16.5499 5.25 14.3999 3.075 13.1666 1.84167Z" fill="#344055"/>
<path d="M9.60837 10.3917L7.9417 8.72499C7.93337 8.71666 7.92503 8.71666 7.92503 8.70832C7.87503 8.65832 7.80837 8.61666 7.7417 8.58332C7.73337 8.58332 7.73337 8.58332 7.72503 8.58332C7.65837 8.55832 7.5917 8.54999 7.52503 8.54166C7.50003 8.54166 7.48337 8.54166 7.45837 8.54166C7.40837 8.54166 7.35003 8.55832 7.30003 8.57499C7.27503 8.58332 7.25837 8.59166 7.2417 8.59999C7.17503 8.63332 7.10837 8.66666 7.05837 8.72499L5.3917 10.3917C5.15003 10.6333 5.15003 11.0333 5.3917 11.275C5.63337 11.5167 6.03337 11.5167 6.27503 11.275L6.87503 10.675V14.1667C6.87503 14.5083 7.15837 14.7917 7.50003 14.7917C7.8417 14.7917 8.12503 14.5083 8.12503 14.1667V10.675L8.72503 11.275C8.85003 11.4 9.00837 11.4583 9.1667 11.4583C9.32503 11.4583 9.48337 11.4 9.60837 11.275C9.85003 11.0333 9.85003 10.6333 9.60837 10.3917Z" fill="#344055"/>
</svg>
