<svg width="20" height="20" viewBox="0 0 20 20" fill="none" xmlns="http://www.w3.org/2000/svg">
<path d="M15 10.8333C14.2166 10.8333 13.4916 11.1083 12.9166 11.5667C12.15 12.175 11.6666 13.1167 11.6666 14.1667C11.6666 14.7917 11.8416 15.3833 12.1499 15.8833C12.7249 16.85 13.7833 17.5 15 17.5C15.8416 17.5 16.6083 17.1917 17.1916 16.6667C17.45 16.45 17.675 16.1833 17.85 15.8833C18.1583 15.3833 18.3333 14.7917 18.3333 14.1667C18.3333 12.325 16.8416 10.8333 15 10.8333ZM16.725 13.8083L14.95 15.45C14.8333 15.5583 14.675 15.6167 14.525 15.6167C14.3666 15.6167 14.2083 15.5584 14.0833 15.4334L13.2583 14.6084C13.0166 14.3667 13.0166 13.9666 13.2583 13.725C13.5 13.4833 13.9 13.4833 14.1416 13.725L14.5416 14.125L15.8749 12.8916C16.1249 12.6583 16.5249 12.675 16.7583 12.925C16.9916 13.175 16.975 13.5667 16.725 13.8083Z" fill="#344055"/>
<path opacity="0.4" d="M17.575 17.9167C17.575 18.15 17.3917 18.3333 17.1584 18.3333H2.84172C2.60838 18.3333 2.42505 18.15 2.42505 17.9167C2.42505 14.4667 5.82505 11.6667 10 11.6667C10.8584 11.6667 11.6917 11.7833 12.4584 12.0083C11.9667 12.5916 11.6667 13.35 11.6667 14.1667C11.6667 14.7917 11.8417 15.3833 12.15 15.8833C12.3167 16.1667 12.5334 16.425 12.7834 16.6416C13.3667 17.175 14.1417 17.5 15 17.5C15.9334 17.5 16.7751 17.1167 17.3751 16.5C17.5084 16.95 17.575 17.425 17.575 17.9167Z" fill="#344055"/>
<path d="M10 10C12.3012 10 14.1667 8.13452 14.1667 5.83333C14.1667 3.53214 12.3012 1.66666 10 1.66666C7.69885 1.66666 5.83337 3.53214 5.83337 5.83333C5.83337 8.13452 7.69885 10 10 10Z" fill="#292D32"/>
</svg>
