<svg width="24" height="24" viewBox="0 0 24 24" fill="none" xmlns="http://www.w3.org/2000/svg">
<g clip-path="url(#clip0_1407_252)">
<path fill-rule="evenodd" clip-rule="evenodd" d="M14.958 7.40978C17.2466 9.80627 17.1591 13.6042 14.7626 15.8928C12.3661 18.1814 8.56816 18.0939 6.2796 15.6974C3.99103 13.3009 4.07852 9.50295 6.475 7.21438C8.87148 4.92582 12.6695 5.0133 14.958 7.40978ZM16.8244 16.6038C19.3385 13.5225 19.222 8.9789 16.4044 6.02851C13.353 2.8332 8.28904 2.71655 5.09373 5.76797C1.89842 8.8194 1.78177 13.8834 4.83319 17.0787C7.65072 20.0291 12.1841 20.3547 15.378 17.9851L17.4926 20.1995C17.874 20.5989 18.507 20.6135 18.9064 20.232C19.3059 19.8506 19.3204 19.2176 18.939 18.8182L16.8244 16.6038Z" fill="#858C99"/>
</g>
<defs>
<clipPath id="clip0_1407_252">
<rect width="24" height="24" fill="white"/>
</clipPath>
</defs>
</svg>
