<svg width="20" height="20" viewBox="0 0 20 20" fill="none" xmlns="http://www.w3.org/2000/svg">
<path opacity="0.8" d="M10.75 2.1L10.725 2.15833L8.30837 7.76667H5.93337C5.36671 7.76667 4.83337 7.875 4.33337 8.09167L5.79171 4.60833L5.82504 4.53333L5.87504 4.4C5.90004 4.34167 5.91671 4.29167 5.94171 4.25C7.03337 1.725 8.26671 1.15 10.75 2.1Z" fill="#344055"/>
<path d="M15.2417 7.93333C14.8667 7.825 14.475 7.76666 14.0667 7.76666H8.30835L10.725 2.15833L10.75 2.1C10.8667 2.14167 10.9917 2.2 11.1167 2.24167L12.9584 3.01667C13.9834 3.44167 14.7 3.88333 15.1417 4.41667C15.2167 4.51667 15.2834 4.60833 15.35 4.71667C15.425 4.83333 15.4834 4.95 15.5167 5.075C15.55 5.15 15.575 5.21667 15.5917 5.29167C15.8084 6 15.675 6.85833 15.2417 7.93333Z" fill="#344055"/>
<path opacity="0.4" d="M18.1334 11.8333V13.4583C18.1334 13.625 18.125 13.7917 18.1167 13.95C17.9584 16.8667 16.3334 18.3333 13.25 18.3333H6.75003C6.5417 18.3333 6.35003 18.3167 6.15837 18.2917C3.50837 18.1167 2.0917 16.7 1.90837 14.05C1.88337 13.85 1.8667 13.6583 1.8667 13.4583V11.8333C1.8667 10.1583 2.88337 8.71666 4.33337 8.09166C4.83337 7.875 5.3667 7.76666 5.93337 7.76666H14.0667C14.475 7.76666 14.8667 7.825 15.2417 7.93333C16.9084 8.44166 18.1334 9.99166 18.1334 11.8333Z" fill="#344055"/>
<path opacity="0.6" d="M5.7917 4.60834L4.33337 8.09167C2.88337 8.71667 1.8667 10.1583 1.8667 11.8333V9.39167C1.8667 7.025 3.55003 5.05 5.7917 4.60834Z" fill="#344055"/>
<path opacity="0.6" d="M18.1334 9.39166V11.8333C18.1334 9.99166 16.9084 8.44166 15.2417 7.93333C15.675 6.85833 15.8084 6 15.5917 5.29166C15.575 5.21666 15.55 5.15 15.5167 5.075C17.075 5.88333 18.1334 7.525 18.1334 9.39166Z" fill="#344055"/>
<path d="M12.0833 12.2417H10.625V10.8333C10.625 10.4917 10.3416 10.2083 9.99996 10.2083C9.65829 10.2083 9.37496 10.4917 9.37496 10.8333V12.2417H7.91663C7.57496 12.2417 7.29163 12.525 7.29163 12.8667C7.29163 13.2083 7.57496 13.4917 7.91663 13.4917H9.37496V15C9.37496 15.3417 9.65829 15.625 9.99996 15.625C10.3416 15.625 10.625 15.3417 10.625 15V13.4917H12.0833C12.425 13.4917 12.7083 13.2083 12.7083 12.8667C12.7083 12.525 12.425 12.2417 12.0833 12.2417Z" fill="#292D32"/>
</svg>
