<svg width="167" height="42" viewBox="0 0 167 42" fill="none" xmlns="http://www.w3.org/2000/svg">
<path d="M62.1708 28.6467C61.9812 28.8363 61.621 29.0069 61.0901 29.1586C60.5593 29.2913 59.9432 29.3577 59.2417 29.3577C57.6871 29.3577 56.7108 28.8932 56.3127 27.9642C55.3648 28.9501 53.9145 29.443 51.9618 29.443C50.9191 29.443 50.0565 29.206 49.374 28.732C48.7104 28.2391 48.3787 27.5187 48.3787 26.5708C48.3787 25.3006 48.8716 24.3243 49.8574 23.6418C50.8432 22.9403 52.5684 22.4474 55.033 22.163L56.1705 22.0208V20.6274C56.1705 18.978 56.0473 17.869 55.8008 17.3002C55.5543 16.7315 55.0614 16.4471 54.3221 16.4471C53.6016 16.4471 53.1372 16.5514 52.9286 16.7599C52.7201 16.9495 52.6443 17.177 52.7011 17.4424C52.758 17.6889 52.8528 18.0207 52.9855 18.4377C53.1182 18.8548 53.1846 19.1866 53.1846 19.433C53.1846 20.0207 52.976 20.5231 52.5589 20.9402C52.1608 21.3383 51.6679 21.5374 51.0802 21.5374C50.5115 21.5374 50.0185 21.3383 49.6015 20.9402C49.1844 20.5231 48.9758 20.0207 48.9758 19.433C48.9758 18.4662 49.4688 17.6415 50.4546 16.959C51.4594 16.2575 52.9476 15.9068 54.9192 15.9068C56.9099 15.9068 58.3222 16.2955 59.1564 17.0727C60.0095 17.85 60.4361 19.2245 60.4361 21.1962V26.3149C60.4361 27.3197 60.5593 27.9548 60.8058 28.2202C61.0522 28.4666 61.5072 28.514 62.1708 28.3624V28.6467ZM52.3314 26.0021C52.4262 26.7225 52.6917 27.2817 53.1277 27.6799C53.5637 28.059 54.0661 28.2486 54.6349 28.2486C55.2226 28.2486 55.7344 27.9642 56.1705 27.3955V22.5611L55.1467 22.7033C54.2747 22.8171 53.5637 23.1489 53.0139 23.6986C52.4831 24.2484 52.2556 25.0162 52.3314 26.0021Z" fill="#01B3F8"/>
<path d="M87.7621 28.6467H89.184V29.2155H82.0747V28.6467H83.4965V20.6843C83.4965 19.3382 83.2975 18.3809 82.8993 17.8121C82.5012 17.2434 81.904 16.959 81.1078 16.959C80.6528 16.959 80.1788 17.0917 79.6859 17.3571C79.193 17.6225 78.7854 17.9922 78.4631 18.4662C78.6906 19.1487 78.8044 20.0966 78.8044 21.3099V28.6467H80.2262V29.2155H72.8325V28.6467H74.5388V20.6843C74.5388 19.3382 74.3397 18.3809 73.9416 17.8121C73.5435 17.2434 72.9463 16.959 72.15 16.959C71.0694 16.959 70.2068 17.5277 69.5622 18.6652V28.6467H70.9841V29.2155H63.8748V28.6467H65.2966V16.7031H63.8748V16.1343H69.5622V17.6131C69.9224 17.1201 70.4817 16.7031 71.24 16.3618C72.0173 16.0016 72.8515 15.8215 73.7425 15.8215C75.9986 15.8215 77.4678 16.4566 78.1503 17.7268C78.6432 17.1201 79.2973 16.6557 80.1125 16.3334C80.9277 15.9921 81.7903 15.8215 82.7003 15.8215C86.0748 15.8215 87.7621 17.651 87.7621 21.3099V28.6467Z" fill="#01B3F8"/>
<path d="M90.8891 22.6749C90.8891 20.4378 91.5432 18.7411 92.8513 17.5846C94.1594 16.4282 95.8183 15.8499 97.8278 15.8499C99.8563 15.8499 101.364 16.3618 102.349 17.3856C103.335 18.3903 103.686 19.433 103.402 20.5137C103.25 21.1014 102.928 21.5374 102.435 21.8218C101.961 22.0872 101.439 22.1535 100.871 22.0208C99.6762 21.7365 99.0791 21.0445 99.0791 19.9449C99.0791 19.6605 99.1075 19.234 99.1644 18.6652C99.2402 18.0775 99.2686 17.651 99.2497 17.3856C99.2307 17.1201 99.1739 16.9116 99.0791 16.7599C98.8895 16.4376 98.444 16.3144 97.7425 16.3902C96.0363 16.6557 95.1832 18.7505 95.1832 22.6749C95.1832 26.5803 96.5766 28.533 99.3634 28.533C100.008 28.533 100.662 28.3624 101.326 28.0211C101.989 27.6799 102.482 27.2723 102.804 26.7983L103.202 27.0827C102.766 27.8031 102.112 28.3813 101.24 28.8174C100.368 29.2534 99.3919 29.4714 98.3113 29.4714C93.3632 29.4714 90.8891 27.2059 90.8891 22.6749Z" fill="#01B3F8"/>
<path d="M110.168 27.5092C110.585 28.4571 111.305 28.9311 112.329 28.9311C113.353 28.9311 114.082 28.4477 114.519 27.4808C114.955 26.5139 115.173 24.9214 115.173 22.7033C115.173 20.4663 114.955 18.8643 114.519 17.8974C114.082 16.9116 113.353 16.4187 112.329 16.4187C111.305 16.4187 110.585 16.9116 110.168 17.8974C109.751 18.8643 109.542 20.4663 109.542 22.7033C109.542 24.9404 109.751 26.5424 110.168 27.5092ZM112.272 29.4999C110.471 29.4999 108.841 28.9121 107.381 27.7367C105.921 26.5613 105.191 24.893 105.191 22.7318C105.191 21.5753 105.4 20.5421 105.817 19.6321C106.253 18.7221 106.821 18.0017 107.523 17.4709C108.243 16.94 109.011 16.5419 109.826 16.2765C110.642 15.9921 111.476 15.8499 112.329 15.8499C113.182 15.8499 114.016 15.9921 114.831 16.2765C115.665 16.5419 116.433 16.94 117.135 17.4709C117.855 18.0017 118.433 18.7221 118.869 19.6321C119.305 20.5421 119.523 21.5658 119.523 22.7033C119.523 23.8408 119.305 24.8551 118.869 25.7461C118.433 26.6372 117.855 27.3481 117.135 27.8789C115.694 28.9595 114.073 29.4999 112.272 29.4999Z" fill="#01B3F8"/>
<path d="M135.348 16.1343V16.7031H133.954L128.636 29.2155H128.124L121.811 16.7031H120.674V16.1343H128.068V16.7031H126.646L130.172 24.0968L133.328 16.7031H131.082V16.1343H135.348Z" fill="#01B3F8"/>
<path d="M150.565 28.6467C150.376 28.8363 150.015 29.0069 149.485 29.1586C148.954 29.2913 148.338 29.3577 147.636 29.3577C146.082 29.3577 145.105 28.8932 144.707 27.9642C143.759 28.9501 142.309 29.443 140.356 29.443C139.314 29.443 138.451 29.206 137.768 28.732C137.105 28.2391 136.773 27.5187 136.773 26.5708C136.773 25.3006 137.266 24.3243 138.252 23.6418C139.238 22.9403 140.963 22.4474 143.427 22.163L144.565 22.0208V20.6274C144.565 18.978 144.442 17.869 144.195 17.3002C143.949 16.7315 143.456 16.4471 142.717 16.4471C141.996 16.4471 141.532 16.5514 141.323 16.7599C141.115 16.9495 141.039 17.177 141.096 17.4424C141.153 17.6889 141.247 18.0207 141.38 18.4377C141.513 18.8548 141.579 19.1866 141.579 19.433C141.579 20.0207 141.371 20.5231 140.953 20.9402C140.555 21.3383 140.062 21.5374 139.475 21.5374C138.906 21.5374 138.413 21.3383 137.996 20.9402C137.579 20.5231 137.37 20.0207 137.37 19.433C137.37 18.4662 137.863 17.6415 138.849 16.959C139.854 16.2575 141.342 15.9068 143.314 15.9068C145.304 15.9068 146.717 16.2955 147.551 17.0727C148.404 17.85 148.831 19.2245 148.831 21.1962V26.3149C148.831 27.3197 148.954 27.9548 149.2 28.2202C149.447 28.4666 149.902 28.514 150.565 28.3624V28.6467ZM140.726 26.0021C140.821 26.7225 141.086 27.2817 141.522 27.6799C141.958 28.059 142.461 28.2486 143.029 28.2486C143.617 28.2486 144.129 27.9642 144.565 27.3955V22.5611L143.541 22.7033C142.669 22.8171 141.958 23.1489 141.408 23.6986C140.878 24.2484 140.65 25.0162 140.726 26.0021Z" fill="#01B3F8"/>
<path d="M157.644 29.5567C156.108 29.5567 154.781 28.9501 153.663 27.7367C152.544 26.5234 151.985 24.8077 151.985 22.5896C151.985 20.3715 152.535 18.6368 153.634 17.3856C154.734 16.1343 156.07 15.5087 157.644 15.5087C158.421 15.5087 159.151 15.6698 159.834 15.9921C160.516 16.3144 161.009 16.7978 161.312 17.4424V10.7312H159.89V10.1625H165.578V28.6467H167V29.2155H161.312V27.9074C160.8 29.0069 159.578 29.5567 157.644 29.5567ZM161.312 22.9877V18.2955C160.8 17.2718 160.127 16.7599 159.293 16.7599C158.478 16.7599 157.777 17.2339 157.189 18.1818C156.601 19.1297 156.307 20.6369 156.307 22.7033C156.307 24.7508 156.611 26.2485 157.217 27.1964C157.824 28.1443 158.554 28.5519 159.407 28.4192C159.881 28.3434 160.241 28.1917 160.488 27.9642C161.037 27.4334 161.312 25.7746 161.312 22.9877Z" fill="#01B3F8"/>
<path fill-rule="evenodd" clip-rule="evenodd" d="M20.7944 41.5888C32.2788 41.5888 41.5888 32.2788 41.5888 20.7944C41.5888 9.30997 32.2788 0 20.7944 0C9.30997 0 0 9.30997 0 20.7944C0 32.2788 9.30997 41.5888 20.7944 41.5888ZM20.7945 39.1297C30.9209 39.1297 39.1299 30.9207 39.1299 20.7943C39.1299 10.668 30.9209 2.45891 20.7945 2.45891C10.6681 2.45891 2.45907 10.668 2.45907 20.7943C2.45907 30.9207 10.6681 39.1297 20.7945 39.1297Z" fill="#01B3F8"/>
<path fill-rule="evenodd" clip-rule="evenodd" d="M20.7943 35.8155C29.0903 35.8155 35.8155 29.0903 35.8155 20.7943C35.8155 12.4984 29.0903 5.77319 20.7943 5.77319C12.4984 5.77319 5.77319 12.4984 5.77319 20.7943C5.77319 29.0903 12.4984 35.8155 20.7943 35.8155ZM20.7944 32.5012C27.2599 32.5012 32.5012 27.2598 32.5012 20.7943C32.5012 14.3288 27.2599 9.08744 20.7944 9.08744C14.3288 9.08744 9.08748 14.3288 9.08748 20.7943C9.08748 27.2598 14.3288 32.5012 20.7944 32.5012Z" fill="#01B3F8"/>
<rect x="19.1924" y="0.5513" width="3.20394" height="40.4861" fill="#01B3F8"/>
<rect x="0.55127" y="22.3963" width="3.20394" height="40.4861" transform="rotate(-90 0.55127 22.3963)" fill="#01B3F8"/>
<rect x="34.1245" y="5.2189" width="3.20736" height="40.7389" transform="rotate(45 34.1245 5.2189)" fill="#01B3F8"/>
<rect x="5.23389" y="7.58633" width="3.20736" height="40.6863" transform="rotate(-45 5.23389 7.58633)" fill="#01B3F8"/>
<path fill-rule="evenodd" clip-rule="evenodd" d="M20.7941 29.8284C25.7835 29.8284 29.8281 25.7837 29.8281 20.7944C29.8281 15.805 25.7835 11.7603 20.7941 11.7603C15.8047 11.7603 11.76 15.805 11.76 20.7944C11.76 25.7837 15.8047 29.8284 20.7941 29.8284ZM20.7941 27.0486C24.2483 27.0486 27.0485 24.2484 27.0485 20.7943C27.0485 17.3401 24.2483 14.5399 20.7941 14.5399C17.3399 14.5399 14.5398 17.3401 14.5398 20.7943C14.5398 24.2484 17.3399 27.0486 20.7941 27.0486Z" fill="#01B3F8"/>
<circle cx="20.7409" cy="20.8478" r="6.52164" fill="white"/>
<path fill-rule="evenodd" clip-rule="evenodd" d="M19.6753 15.9548C19.0617 16.1212 18.5828 16.5691 18.3589 17.186C18.2808 17.4011 18.2723 17.5162 18.2563 18.5611L18.2389 19.7015H18.0603C17.9621 19.7015 17.8088 19.7232 17.7197 19.7497C17.5033 19.8141 17.177 20.1427 17.1131 20.3605C17.045 20.5927 17.045 24.5219 17.1131 24.7541C17.177 24.972 17.5033 25.3006 17.7197 25.365C17.9524 25.4342 23.7406 25.4342 23.9733 25.365C24.1897 25.3006 24.516 24.972 24.5799 24.7541C24.6471 24.525 24.6481 20.5921 24.581 20.3664C24.5552 20.2799 24.4575 20.1232 24.3639 20.0183C24.1717 19.8031 23.9395 19.7015 23.6401 19.7015H23.4541L23.4367 18.5611C23.4207 17.5162 23.4122 17.4011 23.3341 17.186C23.1071 16.5605 22.6279 16.1173 22.0009 15.9528C21.6906 15.8714 19.9773 15.8729 19.6753 15.9548ZM21.9007 17.2751C22.1548 17.4576 22.1647 17.5069 22.1783 18.6603L22.1905 19.7015H20.8489H19.5073L19.509 18.7198C19.5111 17.5232 19.5429 17.3934 19.8746 17.2257C19.9799 17.1725 20.1395 17.1641 20.8859 17.1726C21.7427 17.1824 21.7764 17.1858 21.9007 17.2751ZM21.2792 21.1045C21.6912 21.3791 21.7476 21.9672 21.3959 22.3215L21.2404 22.478V23.2487C21.2404 24.166 21.2501 24.1439 20.8465 24.1439C20.4429 24.1439 20.4526 24.166 20.4526 23.2487V22.478L20.2976 22.3219C19.9821 22.0042 19.9814 21.5245 20.2961 21.2077C20.3805 21.1227 20.5079 21.0352 20.5791 21.0132C20.7856 20.9496 21.1102 20.9919 21.2792 21.1045Z" fill="#01B3F8"/>
</svg>
