<svg width="30" height="30" viewBox="0 0 30 30" fill="none" xmlns="http://www.w3.org/2000/svg">
<path opacity="0.5" d="M14.8633 7.34181C10.6419 7.34181 7.23506 10.7486 7.23506 14.97C7.23506 19.1914 10.6419 22.5982 14.8633 22.5982C19.0846 22.5982 22.4915 19.1914 22.4915 14.97C22.4915 10.7486 19.0846 7.34181 14.8633 7.34181ZM14.8633 19.9278C12.1333 19.9278 9.90549 17.6999 9.90549 14.97C9.90549 12.2401 12.1333 10.0122 14.8633 10.0122C17.5932 10.0122 19.821 12.2401 19.821 14.97C19.821 17.6999 17.5932 19.9278 14.8633 19.9278ZM22.8039 5.25159C21.8183 5.25159 21.0224 6.04751 21.0224 7.03311C21.0224 8.01871 21.8183 8.81464 22.8039 8.81464C23.7895 8.81464 24.5854 8.02243 24.5854 7.03311C24.5857 6.79908 24.5398 6.56728 24.4504 6.351C24.361 6.13473 24.2297 5.93822 24.0643 5.77273C23.8988 5.60724 23.7023 5.47602 23.486 5.3866C23.2697 5.29717 23.0379 5.25129 22.8039 5.25159ZM29.7329 14.97C29.7329 12.917 29.7515 10.8825 29.6362 8.83323C29.5209 6.45291 28.9778 4.34037 27.2372 2.59976C25.4929 0.855423 23.3841 0.316131 21.0038 0.200834C18.9507 0.0855373 16.9163 0.104134 14.867 0.104134C12.8139 0.104134 10.7795 0.0855373 8.7302 0.200834C6.34988 0.316131 4.23734 0.859143 2.49673 2.59976C0.752396 4.34409 0.213104 6.45291 0.0978069 8.83323C-0.0174901 10.8863 0.00110627 12.9207 0.00110627 14.97C0.00110627 17.0193 -0.0174901 19.0575 0.0978069 21.1068C0.213104 23.4871 0.756116 25.5996 2.49673 27.3403C4.24106 29.0846 6.34988 29.6239 8.7302 29.7392C10.7832 29.8545 12.8177 29.8359 14.867 29.8359C16.92 29.8359 18.9544 29.8545 21.0038 29.7392C23.3841 29.6239 25.4966 29.0809 27.2372 27.3403C28.9816 25.5959 29.5209 23.4871 29.6362 21.1068C29.7552 19.0575 29.7329 17.023 29.7329 14.97ZM26.4599 23.74C26.1884 24.4169 25.8611 24.9227 25.3367 25.4434C24.8123 25.9679 24.3102 26.2951 23.6333 26.5667C21.6769 27.344 17.0316 27.1692 14.8633 27.1692C12.6949 27.1692 8.04586 27.344 6.08953 26.5704C5.41263 26.2989 4.90681 25.9716 4.38611 25.4472C3.8617 24.9227 3.5344 24.4206 3.2629 23.7437C2.48929 21.7837 2.66409 17.1383 2.66409 14.97C2.66409 12.8017 2.48929 8.15261 3.2629 6.19628C3.5344 5.51937 3.8617 5.01355 4.38611 4.49286C4.91053 3.97216 5.41263 3.64115 6.08953 3.36964C8.04586 2.59604 12.6949 2.77084 14.8633 2.77084C17.0316 2.77084 21.6807 2.59604 23.637 3.36964C24.3139 3.64115 24.8197 3.96844 25.3404 4.49286C25.8648 5.01727 26.1921 5.51937 26.4636 6.19628C27.2372 8.15261 27.0624 12.8017 27.0624 14.97C27.0624 17.1383 27.2372 21.7837 26.4599 23.74Z" fill="#D6D9DD"/>
</svg>
