<svg width="30" height="30" viewBox="0 0 30 30" fill="none" xmlns="http://www.w3.org/2000/svg">
<g opacity="0.5">
<path d="M22.4779 16.6502V22.1466H19.2918V17.0174C19.2918 15.7299 18.8309 14.8512 17.6772 14.8512C16.7971 14.8512 16.2723 15.443 16.0418 16.0168C15.9586 16.222 15.9363 16.5075 15.9363 16.7929V22.1466H12.7487C12.7487 22.1466 12.7918 13.4612 12.7487 12.5617H15.9363V13.9191L15.9154 13.9503H15.9363V13.9206C16.36 13.2664 17.1152 12.3357 18.8086 12.3357C20.9049 12.3357 22.4779 13.7065 22.4779 16.6502ZM9.41399 7.93945C8.32422 7.93945 7.6106 8.65606 7.6106 9.59567C7.6106 10.5174 8.30341 11.2534 9.37237 11.2534H9.39318C10.5053 11.2534 11.1966 10.5159 11.1966 9.59567C11.1758 8.65606 10.5053 7.93945 9.41399 7.93945ZM7.79941 22.1466H10.9869V12.5617H7.79941V22.1466Z" fill="#D6D9DD"/>
<path d="M6.1239 3.07599C5.3353 3.07599 4.57899 3.38926 4.02136 3.94689C3.46373 4.50452 3.15045 5.26083 3.15045 6.04944V23.8902C3.15045 24.6788 3.46373 25.4351 4.02136 25.9927C4.57899 26.5503 5.3353 26.8636 6.1239 26.8636H23.9646C24.7532 26.8636 25.5095 26.5503 26.0672 25.9927C26.6248 25.4351 26.9381 24.6788 26.9381 23.8902V6.04944C26.9381 5.26083 26.6248 4.50452 26.0672 3.94689C25.5095 3.38926 24.7532 3.07599 23.9646 3.07599H6.1239ZM6.1239 0.102539H23.9646C25.5418 0.102539 27.0544 0.729086 28.1697 1.84435C29.285 2.95961 29.9115 4.47223 29.9115 6.04944V23.8902C29.9115 25.4674 29.285 26.98 28.1697 28.0952C27.0544 29.2105 25.5418 29.8371 23.9646 29.8371H6.1239C4.54669 29.8371 3.03407 29.2105 1.91881 28.0952C0.803549 26.98 0.177002 25.4674 0.177002 23.8902V6.04944C0.177002 4.47223 0.803549 2.95961 1.91881 1.84435C3.03407 0.729086 4.54669 0.102539 6.1239 0.102539Z" fill="#D6D9DD"/>
</g>
</svg>
