<svg width="30" height="30" viewBox="0 0 30 30" fill="none" xmlns="http://www.w3.org/2000/svg">
<g opacity="0.5">
<path d="M22.5662 10.4309C22.0191 10.6688 21.4319 10.8323 20.8149 10.9037C21.4452 10.532 21.9269 9.94325 22.1559 9.243C21.5552 9.59307 20.8998 9.83936 20.2172 9.97149C19.9301 9.67054 19.5847 9.43123 19.202 9.26815C18.8194 9.10507 18.4075 9.02165 17.9916 9.02296C16.3071 9.02296 14.9423 10.3685 14.9423 12.0262C14.9423 12.2611 14.9691 12.49 15.0211 12.71C13.8129 12.6527 12.6299 12.3441 11.5476 11.804C10.4653 11.2638 9.50747 10.504 8.73522 9.57305C8.46399 10.0296 8.32118 10.551 8.32191 11.0821C8.32191 12.1228 8.86159 13.0446 9.67929 13.5813C9.19528 13.5661 8.72163 13.4372 8.29664 13.2051V13.2423C8.30123 13.9403 8.5476 14.615 8.99379 15.1518C9.43998 15.6885 10.0584 16.054 10.7438 16.186C10.2938 16.305 9.82305 16.3222 9.36559 16.2366C9.565 16.837 9.94642 17.3605 10.4569 17.7342C10.9674 18.108 11.5815 18.3136 12.2142 18.3224C11.1288 19.1588 9.79621 19.6107 8.42598 19.607C8.18067 19.607 7.93834 19.5921 7.69897 19.5653C9.0972 20.4504 10.7185 20.9191 12.3732 20.9168C17.9841 20.9168 21.0513 16.3406 21.0513 12.3711L21.0409 11.9815C21.639 11.5612 22.1558 11.0358 22.5662 10.4309Z" fill="#D6D9DD"/>
<path d="M6.21228 3.07599C5.42368 3.07599 4.66737 3.38926 4.10974 3.94689C3.55211 4.50452 3.23883 5.26083 3.23883 6.04944V23.8902C3.23883 24.6788 3.55211 25.4351 4.10974 25.9927C4.66737 26.5503 5.42368 26.8636 6.21228 26.8636H24.053C24.8416 26.8636 25.5979 26.5503 26.1555 25.9927C26.7132 25.4351 27.0264 24.6788 27.0264 23.8902V6.04944C27.0264 5.26083 26.7132 4.50452 26.1555 3.94689C25.5979 3.38926 24.8416 3.07599 24.053 3.07599H6.21228ZM6.21228 0.102539H24.053C25.6302 0.102539 27.1428 0.729086 28.2581 1.84435C29.3733 2.95961 29.9999 4.47223 29.9999 6.04944V23.8902C29.9999 25.4674 29.3733 26.98 28.2581 28.0952C27.1428 29.2105 25.6302 29.8371 24.053 29.8371H6.21228C4.63507 29.8371 3.12245 29.2105 2.00719 28.0952C0.891928 26.98 0.265381 25.4674 0.265381 23.8902V6.04944C0.265381 4.47223 0.891928 2.95961 2.00719 1.84435C3.12245 0.729086 4.63507 0.102539 6.21228 0.102539Z" fill="#D6D9DD"/>
</g>
</svg>
