<svg width="30" height="30" viewBox="0 0 30 30" fill="none" xmlns="http://www.w3.org/2000/svg">
<g opacity="0.5">
<path d="M13.0157 10.4159V12.4631H11.5171V14.9653H13.0157V22.4034H16.0962V14.9653H18.1628C18.1628 14.9653 18.3575 13.7655 18.4512 12.4527H16.1081V10.743C16.1081 10.4858 16.4441 10.1424 16.7771 10.1424H18.4542V7.53613H16.172C12.9399 7.53613 13.0157 10.0413 13.0157 10.4159Z" fill="#D6D9DD"/>
<path d="M6.03553 3.07599C5.24692 3.07599 4.49061 3.38926 3.93298 3.94689C3.37535 4.50452 3.06207 5.26083 3.06207 6.04944V23.8902C3.06207 24.6788 3.37535 25.4351 3.93298 25.9927C4.49061 26.5503 5.24692 26.8636 6.03553 26.8636H23.8762C24.6648 26.8636 25.4212 26.5503 25.9788 25.9927C26.5364 25.4351 26.8497 24.6788 26.8497 23.8902V6.04944C26.8497 5.26083 26.5364 4.50452 25.9788 3.94689C25.4212 3.38926 24.6648 3.07599 23.8762 3.07599H6.03553ZM6.03553 0.102539H23.8762C25.4535 0.102539 26.9661 0.729086 28.0813 1.84435C29.1966 2.95961 29.8231 4.47223 29.8231 6.04944V23.8902C29.8231 25.4674 29.1966 26.98 28.0813 28.0952C26.9661 29.2105 25.4535 29.8371 23.8762 29.8371H6.03553C4.45831 29.8371 2.94569 29.2105 1.83043 28.0952C0.71517 26.98 0.088623 25.4674 0.088623 23.8902V6.04944C0.088623 4.47223 0.71517 2.95961 1.83043 1.84435C2.94569 0.729086 4.45831 0.102539 6.03553 0.102539Z" fill="#D6D9DD"/>
</g>
</svg>
