<svg width="153" height="39" viewBox="0 0 153 39" fill="none" xmlns="http://www.w3.org/2000/svg">
<path d="M56.9589 26.2452C56.7852 26.4189 56.4552 26.5752 55.9689 26.7142C55.4825 26.8358 54.918 26.8966 54.2754 26.8966C52.8511 26.8966 51.9566 26.471 51.5919 25.62C50.7234 26.5231 49.3947 26.9747 47.6057 26.9747C46.6504 26.9747 45.8601 26.7576 45.2349 26.3234C44.627 25.8718 44.323 25.2118 44.323 24.3433C44.323 23.1796 44.7746 22.2851 45.6778 21.6598C46.581 21.0172 48.1615 20.5656 50.4195 20.3051L51.4616 20.1748V18.8982C51.4616 17.3871 51.3487 16.371 51.1229 15.8499C50.8971 15.3289 50.4455 15.0683 49.7682 15.0683C49.1081 15.0683 48.6826 15.1639 48.4915 15.3549C48.3005 15.5286 48.231 15.737 48.2831 15.9802C48.3352 16.206 48.4221 16.51 48.5436 16.8921C48.6652 17.2742 48.726 17.5781 48.726 17.8039C48.726 18.3424 48.535 18.8027 48.1528 19.1848C47.7881 19.5495 47.3365 19.7319 46.7981 19.7319C46.277 19.7319 45.8254 19.5495 45.4433 19.1848C45.0612 18.8027 44.8701 18.3424 44.8701 17.8039C44.8701 16.9181 45.3217 16.1626 46.2249 15.5373C47.1454 14.8947 48.5089 14.5733 50.3153 14.5733C52.139 14.5733 53.433 14.9294 54.1972 15.6415C54.9788 16.3536 55.3696 17.6129 55.3696 19.4193V24.1089C55.3696 25.0294 55.4825 25.6113 55.7083 25.8544C55.9341 26.0802 56.351 26.1237 56.9589 25.9847V26.2452ZM47.9444 23.8223C48.0313 24.4823 48.2744 24.9947 48.6739 25.3594C49.0734 25.7068 49.5337 25.8805 50.0547 25.8805C50.5932 25.8805 51.0621 25.62 51.4616 25.0989V20.6698L50.5237 20.8001C49.7247 20.9043 49.0734 21.2083 48.5697 21.712C48.0834 22.2157 47.8749 22.9191 47.9444 23.8223Z" fill="#D6D9DD"/>
<path d="M80.4049 26.2452H81.7076V26.7663H75.1942V26.2452H76.4969V18.9503C76.4969 17.7171 76.3145 16.84 75.9498 16.3189C75.585 15.7978 75.0379 15.5373 74.3084 15.5373C73.8915 15.5373 73.4573 15.6589 73.0057 15.9021C72.5541 16.1452 72.1807 16.4839 71.8854 16.9181C72.0939 17.5434 72.1981 18.4119 72.1981 19.5235V26.2452H73.5007V26.7663H66.7269V26.2452H68.2901V18.9503C68.2901 17.7171 68.1077 16.84 67.7429 16.3189C67.3782 15.7978 66.8311 15.5373 66.1016 15.5373C65.1116 15.5373 64.3213 16.0584 63.7307 17.1005V26.2452H65.0334V26.7663H58.52V26.2452H59.8227V15.3028H58.52V14.7818H63.7307V16.1365C64.0607 15.6849 64.5731 15.3028 65.2679 14.9902C65.98 14.6602 66.7442 14.4952 67.5606 14.4952C69.6275 14.4952 70.9736 15.077 71.5988 16.2407C72.0504 15.6849 72.6497 15.2594 73.3965 14.9641C74.1434 14.6515 74.9337 14.4952 75.7674 14.4952C78.859 14.4952 80.4049 16.1713 80.4049 19.5235V26.2452Z" fill="#D6D9DD"/>
<path d="M83.2697 20.774C83.2697 18.7245 83.869 17.17 85.0674 16.1105C86.2659 15.051 87.7857 14.5212 89.6268 14.5212C91.4852 14.5212 92.8661 14.9902 93.7692 15.9281C94.6724 16.8487 94.9937 17.8039 94.7332 18.794C94.5943 19.3324 94.299 19.7319 93.8474 19.9924C93.4132 20.2356 92.9355 20.2964 92.4145 20.1748C91.3202 19.9143 90.7731 19.2803 90.7731 18.2729C90.7731 18.0124 90.7992 17.6216 90.8513 17.1005C90.9207 16.5621 90.9468 16.1713 90.9294 15.9281C90.9121 15.6849 90.8599 15.4939 90.7731 15.3549C90.5994 15.0597 90.1912 14.9468 89.5486 15.0162C87.9854 15.2594 87.2038 17.1787 87.2038 20.774C87.2038 24.352 88.4804 26.141 91.0336 26.141C91.6242 26.141 92.2234 25.9847 92.8313 25.6721C93.4392 25.3594 93.8908 24.986 94.1861 24.5518L94.5508 24.8123C94.1514 25.4723 93.5521 26.0021 92.7532 26.4016C91.9542 26.801 91.0597 27.0008 90.0697 27.0008C85.5364 27.0008 83.2697 24.9252 83.2697 20.774Z" fill="#D6D9DD"/>
<path d="M100.932 25.2031C101.314 26.0716 101.974 26.5058 102.912 26.5058C103.85 26.5058 104.519 26.0629 104.918 25.1771C105.318 24.2912 105.517 22.8322 105.517 20.8001C105.517 18.7506 105.318 17.2829 104.918 16.3971C104.519 15.4939 103.85 15.0423 102.912 15.0423C101.974 15.0423 101.314 15.4939 100.932 16.3971C100.55 17.2829 100.359 18.7506 100.359 20.8001C100.359 22.8496 100.55 24.3173 100.932 25.2031ZM102.86 27.0268C101.21 27.0268 99.7163 26.4884 98.3789 25.4115C97.0414 24.3347 96.3727 22.8062 96.3727 20.8261C96.3727 19.7666 96.5638 18.82 96.9459 17.9863C97.3454 17.1526 97.8665 16.4926 98.5091 16.0063C99.1691 15.5199 99.8726 15.1552 100.619 14.912C101.366 14.6515 102.131 14.5212 102.912 14.5212C103.694 14.5212 104.458 14.6515 105.205 14.912C105.969 15.1552 106.673 15.5199 107.315 16.0063C107.975 16.4926 108.505 17.1526 108.904 17.9863C109.304 18.82 109.504 19.7579 109.504 20.8001C109.504 21.8422 109.304 22.7715 108.904 23.5878C108.505 24.4041 107.975 25.0555 107.315 25.5418C105.995 26.5318 104.51 27.0268 102.86 27.0268Z" fill="#D6D9DD"/>
<path d="M124.001 14.7818V15.3028H122.725L117.853 26.7663H117.384L111.6 15.3028H110.558V14.7818H117.331V15.3028H116.029L119.259 22.0767L122.151 15.3028H120.093V14.7818H124.001Z" fill="#D6D9DD"/>
<path d="M137.943 26.2452C137.769 26.4189 137.439 26.5752 136.953 26.7142C136.467 26.8358 135.902 26.8966 135.26 26.8966C133.835 26.8966 132.941 26.471 132.576 25.62C131.708 26.5231 130.379 26.9747 128.59 26.9747C127.635 26.9747 126.844 26.7576 126.219 26.3234C125.611 25.8718 125.307 25.2118 125.307 24.3433C125.307 23.1796 125.759 22.2851 126.662 21.6598C127.565 21.0172 129.146 20.5656 131.404 20.3051L132.446 20.1748V18.8982C132.446 17.3871 132.333 16.371 132.107 15.8499C131.881 15.3289 131.43 15.0683 130.752 15.0683C130.092 15.0683 129.667 15.1639 129.476 15.3549C129.285 15.5286 129.215 15.737 129.267 15.9802C129.319 16.206 129.406 16.51 129.528 16.8921C129.649 17.2742 129.71 17.5781 129.71 17.8039C129.71 18.3424 129.519 18.8027 129.137 19.1848C128.772 19.5495 128.321 19.7319 127.782 19.7319C127.261 19.7319 126.81 19.5495 126.428 19.1848C126.045 18.8027 125.854 18.3424 125.854 17.8039C125.854 16.9181 126.306 16.1626 127.209 15.5373C128.13 14.8947 129.493 14.5733 131.3 14.5733C133.123 14.5733 134.417 14.9294 135.181 15.6415C135.963 16.3536 136.354 17.6129 136.354 19.4193V24.1089C136.354 25.0294 136.467 25.6113 136.693 25.8544C136.918 26.0802 137.335 26.1237 137.943 25.9847V26.2452ZM128.929 23.8223C129.016 24.4823 129.259 24.9947 129.658 25.3594C130.058 25.7068 130.518 25.8805 131.039 25.8805C131.577 25.8805 132.046 25.62 132.446 25.0989V20.6698L131.508 20.8001C130.709 20.9043 130.058 21.2083 129.554 21.712C129.068 22.2157 128.859 22.9191 128.929 23.8223Z" fill="#D6D9DD"/>
<path d="M144.428 27.0789C143.022 27.0789 141.806 26.5231 140.781 25.4115C139.756 24.2999 139.244 22.728 139.244 20.6959C139.244 18.6637 139.747 17.0745 140.755 15.9281C141.762 14.7818 142.987 14.2086 144.428 14.2086C145.141 14.2086 145.809 14.3562 146.435 14.6515C147.06 14.9468 147.511 15.3897 147.789 15.9802V9.83161H146.487V9.31055H151.697V26.2452H153V26.7663H147.789V25.5679C147.32 26.5752 146.2 27.0789 144.428 27.0789ZM147.789 21.0606V16.7618C147.32 15.8239 146.704 15.3549 145.939 15.3549C145.193 15.3549 144.55 15.7892 144.012 16.6576C143.473 17.526 143.204 18.9069 143.204 20.8001C143.204 22.6759 143.482 24.0481 144.038 24.9165C144.593 25.785 145.262 26.1584 146.044 26.0368C146.478 25.9673 146.808 25.8284 147.034 25.62C147.537 25.1336 147.789 23.6138 147.789 21.0606Z" fill="#D6D9DD"/>
<path fill-rule="evenodd" clip-rule="evenodd" d="M19.0512 38.1023C29.5728 38.1023 38.1023 29.5728 38.1023 19.0512C38.1023 8.5295 29.5728 0 19.0512 0C8.5295 0 0 8.5295 0 19.0512C0 29.5728 8.5295 38.1023 19.0512 38.1023ZM19.0513 35.8493C28.3287 35.8493 35.8496 28.3284 35.8496 19.051C35.8496 9.77351 28.3287 2.25264 19.0513 2.25264C9.77382 2.25264 2.25295 9.77351 2.25295 19.051C2.25295 28.3284 9.77382 35.8493 19.0513 35.8493Z" fill="#D6D9DD"/>
<path fill-rule="evenodd" clip-rule="evenodd" d="M19.051 32.8134C26.6514 32.8134 32.8129 26.6519 32.8129 19.0515C32.8129 11.451 26.6514 5.28955 19.051 5.28955C11.4505 5.28955 5.28906 11.451 5.28906 19.0515C5.28906 26.6519 11.4505 32.8134 19.051 32.8134ZM19.0511 29.7769C24.9746 29.7769 29.7765 24.9749 29.7765 19.0514C29.7765 13.1279 24.9746 8.32594 19.0511 8.32594C13.1275 8.32594 8.32558 13.1279 8.32558 19.0514C8.32558 24.9749 13.1275 29.7769 19.0511 29.7769Z" fill="#D6D9DD"/>
<rect x="17.5835" y="0.504883" width="2.93534" height="37.0921" fill="#D6D9DD"/>
<rect x="0.505127" y="20.5186" width="2.93534" height="37.0921" transform="rotate(-90 0.505127 20.5186)" fill="#D6D9DD"/>
<rect x="31.2639" y="4.78125" width="2.93848" height="37.3237" transform="rotate(45 31.2639 4.78125)" fill="#D6D9DD"/>
<rect x="4.79517" y="6.95068" width="2.93848" height="37.2755" transform="rotate(-45 4.79517 6.95068)" fill="#D6D9DD"/>
<path fill-rule="evenodd" clip-rule="evenodd" d="M19.0509 27.3279C23.622 27.3279 27.3276 23.6223 27.3276 19.0511C27.3276 14.48 23.622 10.7744 19.0509 10.7744C14.4798 10.7744 10.7742 14.48 10.7742 19.0511C10.7742 23.6223 14.4798 27.3279 19.0509 27.3279ZM19.0509 24.7809C22.2155 24.7809 24.781 22.2155 24.781 19.0509C24.781 15.8863 22.2155 13.3208 19.0509 13.3208C15.8863 13.3208 13.3209 15.8863 13.3209 19.0509C13.3209 22.2155 15.8863 24.7809 19.0509 24.7809Z" fill="#D6D9DD"/>
<circle cx="19.002" cy="19.0999" r="5.97492" fill="black"/>
<path fill-rule="evenodd" clip-rule="evenodd" d="M18.0258 14.6171C17.4637 14.7695 17.0249 15.1799 16.8198 15.745C16.7482 15.9421 16.7404 16.0476 16.7258 17.0049L16.7098 18.0497H16.5462C16.4563 18.0497 16.3158 18.0695 16.2341 18.0939C16.0359 18.1528 15.737 18.4539 15.6784 18.6535C15.616 18.8662 15.616 22.466 15.6784 22.6788C15.737 22.8784 16.0359 23.1794 16.2341 23.2384C16.4474 23.3019 21.7503 23.3019 21.9635 23.2384C22.1617 23.1794 22.4607 22.8784 22.5193 22.6788C22.5809 22.4688 22.5818 18.8656 22.5202 18.6589C22.4966 18.5796 22.4071 18.4361 22.3213 18.34C22.1453 18.1428 21.9326 18.0497 21.6582 18.0497H21.4879L21.4719 17.0049C21.4573 16.0476 21.4494 15.9421 21.3779 15.745C21.1699 15.172 20.7309 14.7659 20.1564 14.6153C19.8721 14.5407 18.3025 14.542 18.0258 14.6171ZM20.0647 15.8267C20.2975 15.9939 20.3065 16.0391 20.3189 17.0958L20.3301 18.0497H19.101H17.8719L17.8735 17.1503C17.8754 16.054 17.9045 15.9351 18.2084 15.7815C18.3049 15.7327 18.4511 15.725 19.1349 15.7328C19.9199 15.7418 19.9508 15.7449 20.0647 15.8267ZM19.4952 19.3351C19.8727 19.5866 19.9244 20.1255 19.6021 20.45L19.4597 20.5935V21.2995C19.4597 22.14 19.4686 22.1197 19.0988 22.1197C18.729 22.1197 18.738 22.14 18.738 21.2995V20.5935L18.596 20.4505C18.3069 20.1593 18.3063 19.7199 18.5945 19.4296C18.6719 19.3518 18.7886 19.2716 18.8538 19.2515C19.043 19.1931 19.3405 19.2319 19.4952 19.3351Z" fill="#D6D9DD"/>
</svg>
