<svg width="195" height="40" viewBox="0 0 195 49" fill="none" xmlns="http://www.w3.org/2000/svg">
<path d="M72.5947 33.4498C72.3733 33.6712 71.9527 33.8704 71.3329 34.0475C70.713 34.2024 69.9936 34.2799 69.1745 34.2799C67.3593 34.2799 66.2193 33.7376 65.7544 32.6529C64.6475 33.804 62.9541 34.3795 60.674 34.3795C59.4565 34.3795 58.4492 34.1028 57.6523 33.5494C56.8775 32.9739 56.4901 32.1327 56.4901 31.0258C56.4901 29.5426 57.0657 28.4026 58.2168 27.6057C59.3679 26.7866 61.3824 26.211 64.2601 25.879L65.5884 25.713V24.0859C65.5884 22.16 65.4445 20.865 65.1567 20.2009C64.8689 19.5368 64.2934 19.2047 63.43 19.2047C62.5888 19.2047 62.0465 19.3265 61.803 19.57C61.5595 19.7914 61.4709 20.057 61.5373 20.3669C61.6037 20.6547 61.7144 21.0421 61.8694 21.5291C62.0243 22.0161 62.1018 22.4035 62.1018 22.6913C62.1018 23.3775 61.8583 23.9642 61.3713 24.4512C60.9064 24.916 60.3309 25.1485 59.6446 25.1485C58.9805 25.1485 58.4049 24.916 57.9179 24.4512C57.4309 23.9642 57.1874 23.3775 57.1874 22.6913C57.1874 21.5623 57.763 20.5994 58.9141 19.8024C60.0874 18.9834 61.8251 18.5738 64.1273 18.5738C66.4517 18.5738 68.1009 19.0276 69.0749 19.9352C70.0711 20.8429 70.5691 22.4478 70.5691 24.75V30.727C70.5691 31.9002 70.713 32.6418 71.0008 32.9517C71.2886 33.2395 71.8199 33.2948 72.5947 33.1177V33.4498ZM61.1056 30.3617C61.2163 31.2029 61.5262 31.8559 62.0354 32.3208C62.5445 32.7636 63.1312 32.9849 63.7953 32.9849C64.4815 32.9849 65.0792 32.6529 65.5884 31.9888V26.3439L64.393 26.5099C63.3747 26.6427 62.5445 27.0301 61.9026 27.6721C61.2827 28.314 61.0171 29.2106 61.1056 30.3617Z" fill="#0C1A2C"/>
<path d="M102.477 33.4498H104.137V34.1139H95.8358V33.4498H97.496V24.1523C97.496 22.5806 97.2636 21.4627 96.7987 20.7986C96.3339 20.1345 95.6365 19.8024 94.7068 19.8024C94.1755 19.8024 93.6221 19.9574 93.0465 20.2673C92.471 20.5772 91.995 21.0089 91.6187 21.5623C91.8843 22.3592 92.0172 23.4661 92.0172 24.8828V33.4498H93.6774V34.1139H85.0441V33.4498H87.0364V24.1523C87.0364 22.5806 86.8039 21.4627 86.3391 20.7986C85.8742 20.1345 85.1769 19.8024 84.2471 19.8024C82.9853 19.8024 81.9781 20.4665 81.2255 21.7947V33.4498H82.8857V34.1139H74.5844V33.4498H76.2447V19.5036H74.5844V18.8395H81.2255V20.5661C81.646 19.9906 82.2991 19.5036 83.1846 19.1051C84.0922 18.6845 85.0662 18.4742 86.1066 18.4742C88.7409 18.4742 90.4565 19.2158 91.2534 20.699C91.829 19.9906 92.5927 19.4482 93.5446 19.0719C94.4965 18.6734 95.5037 18.4742 96.5663 18.4742C100.507 18.4742 102.477 20.6104 102.477 24.8828V33.4498Z" fill="#0C1A2C"/>
<path d="M106.128 26.4767C106.128 23.8645 106.892 21.8833 108.419 20.5329C109.947 19.1826 111.884 18.5074 114.23 18.5074C116.599 18.5074 118.359 19.1051 119.51 20.3005C120.661 21.4738 121.07 22.6913 120.738 23.9531C120.561 24.6393 120.185 25.1485 119.609 25.4805C119.056 25.7904 118.447 25.8679 117.783 25.713C116.389 25.3809 115.691 24.5729 115.691 23.289C115.691 22.9569 115.724 22.4588 115.791 21.7947C115.879 21.1085 115.913 20.6104 115.89 20.3005C115.868 19.9906 115.802 19.7471 115.691 19.57C115.47 19.1937 114.95 19.0498 114.131 19.1383C112.138 19.4482 111.142 21.8944 111.142 26.4767C111.142 31.0369 112.769 33.317 116.023 33.317C116.776 33.317 117.54 33.1177 118.314 32.7193C119.089 32.3208 119.665 31.8449 120.041 31.2915L120.506 31.6235C119.997 32.4647 119.233 33.1399 118.215 33.649C117.197 34.1582 116.056 34.4127 114.795 34.4127C109.017 34.4127 106.128 31.7674 106.128 26.4767Z" fill="#0C1A2C"/>
<path d="M128.639 32.1216C129.126 33.2284 129.967 33.7818 131.163 33.7818C132.358 33.7818 133.21 33.2174 133.719 32.0884C134.229 30.9594 134.483 29.0999 134.483 26.5099C134.483 23.8977 134.229 22.0272 133.719 20.8982C133.21 19.7471 132.358 19.1715 131.163 19.1715C129.967 19.1715 129.126 19.7471 128.639 20.8982C128.152 22.0272 127.908 23.8977 127.908 26.5099C127.908 29.122 128.152 30.9926 128.639 32.1216ZM131.096 34.446C128.993 34.446 127.089 33.7597 125.385 32.3872C123.68 31.0147 122.828 29.0667 122.828 26.5431C122.828 25.1927 123.072 23.9863 123.559 22.9237C124.068 21.8612 124.732 21.02 125.551 20.4001C126.392 19.7803 127.289 19.3154 128.24 19.0055C129.192 18.6734 130.166 18.5074 131.163 18.5074C132.159 18.5074 133.133 18.6734 134.085 19.0055C135.059 19.3154 135.955 19.7803 136.774 20.4001C137.615 21.02 138.291 21.8612 138.8 22.9237C139.309 23.9863 139.563 25.1817 139.563 26.5099C139.563 27.8381 139.309 29.0224 138.8 30.0629C138.291 31.1033 137.615 31.9334 136.774 32.5533C135.092 33.8151 133.199 34.446 131.096 34.446Z" fill="#0C1A2C"/>
<path d="M158.041 18.8395V19.5036H156.414L150.204 34.1139H149.607L142.235 19.5036H140.907V18.8395H149.54V19.5036H147.88L151.997 28.137L155.683 19.5036H153.06V18.8395H158.041Z" fill="#0C1A2C"/>
<path d="M175.81 33.4498C175.589 33.6712 175.168 33.8704 174.548 34.0475C173.928 34.2024 173.209 34.2799 172.39 34.2799C170.575 34.2799 169.434 33.7376 168.97 32.6529C167.863 33.804 166.169 34.3795 163.889 34.3795C162.672 34.3795 161.664 34.1028 160.868 33.5494C160.093 32.9739 159.705 32.1327 159.705 31.0258C159.705 29.5426 160.281 28.4026 161.432 27.6057C162.583 26.7866 164.598 26.211 167.475 25.879L168.804 25.713V24.0859C168.804 22.16 168.66 20.865 168.372 20.2009C168.084 19.5368 167.509 19.2047 166.645 19.2047C165.804 19.2047 165.262 19.3265 165.018 19.57C164.775 19.7914 164.686 20.057 164.753 20.3669C164.819 20.6547 164.93 21.0421 165.085 21.5291C165.24 22.0161 165.317 22.4035 165.317 22.6913C165.317 23.3775 165.074 23.9642 164.587 24.4512C164.122 24.916 163.546 25.1485 162.86 25.1485C162.196 25.1485 161.62 24.916 161.133 24.4512C160.646 23.9642 160.403 23.3775 160.403 22.6913C160.403 21.5623 160.978 20.5994 162.129 19.8024C163.303 18.9834 165.04 18.5738 167.343 18.5738C169.667 18.5738 171.316 19.0276 172.29 19.9352C173.286 20.8429 173.784 22.4478 173.784 24.75V30.727C173.784 31.9002 173.928 32.6418 174.216 32.9517C174.504 33.2395 175.035 33.2948 175.81 33.1177V33.4498ZM164.321 30.3617C164.432 31.2029 164.741 31.8559 165.251 32.3208C165.76 32.7636 166.346 32.9849 167.01 32.9849C167.697 32.9849 168.294 32.6529 168.804 31.9888V26.3439L167.608 26.5099C166.59 26.6427 165.76 27.0301 165.118 27.6721C164.498 28.314 164.232 29.2106 164.321 30.3617Z" fill="#0C1A2C"/>
<path d="M184.075 34.5124C182.282 34.5124 180.733 33.804 179.427 32.3872C178.121 30.9705 177.468 28.9671 177.468 26.3771C177.468 23.7871 178.11 21.7615 179.393 20.3005C180.677 18.8395 182.238 18.109 184.075 18.109C184.983 18.109 185.835 18.2971 186.632 18.6734C187.429 19.0498 188.005 19.6143 188.359 20.3669V12.5305H186.699V11.8664H193.34V33.4498H195V34.1139H188.359V32.5865C187.761 33.8704 186.333 34.5124 184.075 34.5124ZM188.359 26.8419V21.3631C187.761 20.1677 186.975 19.57 186.001 19.57C185.049 19.57 184.23 20.1234 183.544 21.2303C182.858 22.3371 182.515 24.097 182.515 26.5099C182.515 28.9007 182.869 30.6495 183.577 31.7563C184.286 32.8632 185.138 33.3391 186.134 33.1842C186.688 33.0956 187.108 32.9185 187.396 32.6529C188.038 32.033 188.359 30.0961 188.359 26.8419Z" fill="#0C1A2C"/>
<path fill-rule="evenodd" clip-rule="evenodd" d="M24.2809 48.5618C37.6909 48.5618 48.5618 37.6909 48.5618 24.2809C48.5618 10.8709 37.6909 0 24.2809 0C10.8709 0 0 10.8709 0 24.2809C0 37.6909 10.8709 48.5618 24.2809 48.5618ZM24.2811 45.6905C36.1053 45.6905 45.6907 36.1051 45.6907 24.2808C45.6907 12.4566 36.1053 2.87121 24.2811 2.87121C12.4568 2.87121 2.87141 12.4566 2.87141 24.2808C2.87141 36.1051 12.4568 45.6905 24.2811 45.6905Z" fill="#0C1A2C"/>
<path fill-rule="evenodd" clip-rule="evenodd" d="M24.2806 41.8205C33.9675 41.8205 41.8203 33.9677 41.8203 24.2808C41.8203 14.5939 33.9675 6.74115 24.2806 6.74115C14.5937 6.74115 6.74097 14.5939 6.74097 24.2808C6.74097 33.9677 14.5937 41.8205 24.2806 41.8205ZM24.2808 37.9505C31.8303 37.9505 37.9505 31.8304 37.9505 24.2808C37.9505 16.7312 31.8303 10.6111 24.2808 10.6111C16.7312 10.6111 10.611 16.7312 10.611 24.2808C10.611 31.8304 16.7312 37.9505 24.2808 37.9505Z" fill="#0C1A2C"/>
<rect x="22.4103" y="0.643738" width="3.74113" height="47.2742" fill="#0C1A2C"/>
<rect x="0.643677" y="26.1514" width="3.74113" height="47.2742" transform="rotate(-90 0.643677 26.1514)" fill="#0C1A2C"/>
<rect x="39.8461" y="6.09393" width="3.74513" height="47.5694" transform="rotate(45 39.8461 6.09393)" fill="#0C1A2C"/>
<rect x="6.11157" y="8.85831" width="3.74513" height="47.508" transform="rotate(-45 6.11157 8.85831)" fill="#0C1A2C"/>
<path fill-rule="evenodd" clip-rule="evenodd" d="M24.2806 34.8296C30.1065 34.8296 34.8294 30.1068 34.8294 24.2809C34.8294 18.4549 30.1065 13.7321 24.2806 13.7321C18.4547 13.7321 13.7318 18.4549 13.7318 24.2809C13.7318 30.1068 18.4547 34.8296 24.2806 34.8296ZM24.2806 31.5837C28.314 31.5837 31.5836 28.3141 31.5836 24.2807C31.5836 20.2474 28.314 16.9777 24.2806 16.9777C20.2473 16.9777 16.9776 20.2474 16.9776 24.2807C16.9776 28.3141 20.2473 31.5837 24.2806 31.5837Z" fill="#0C1A2C"/>
<circle cx="24.2184" cy="24.3432" r="7.61509" fill="#01B3F8"/>
<path fill-rule="evenodd" clip-rule="evenodd" d="M22.9742 18.6299C22.2577 18.8242 21.6985 19.3472 21.4371 20.0675C21.3459 20.3186 21.3359 20.4531 21.3173 21.6732L21.2969 23.0047H21.0884C20.9738 23.0047 20.7948 23.0301 20.6907 23.0611C20.438 23.1362 20.057 23.5199 19.9824 23.7743C19.9028 24.0454 19.9028 28.6334 19.9824 28.9046C20.057 29.159 20.438 29.5427 20.6907 29.6178C20.9624 29.6987 27.7211 29.6987 27.9928 29.6178C28.2455 29.5427 28.6265 29.159 28.7011 28.9046C28.7796 28.637 28.7808 24.0447 28.7024 23.7812C28.6723 23.6801 28.5582 23.4972 28.4488 23.3747C28.2245 23.1234 27.9534 23.0047 27.6037 23.0047H27.3866L27.3662 21.6732C27.3476 20.4531 27.3376 20.3186 27.2464 20.0675C26.9813 19.3371 26.4218 18.8196 25.6897 18.6276C25.3273 18.5325 23.3268 18.5342 22.9742 18.6299ZM25.5727 20.1716C25.8694 20.3847 25.881 20.4422 25.8968 21.789L25.9111 23.0047H24.3446H22.778L22.78 21.8584C22.7825 20.4612 22.8196 20.3097 23.2069 20.1139C23.3299 20.0517 23.5162 20.0419 24.3877 20.0519C25.3883 20.0633 25.4275 20.0673 25.5727 20.1716ZM24.847 24.643C25.3281 24.9636 25.394 25.6504 24.9832 26.064L24.8017 26.2468V27.1467C24.8017 28.2179 24.813 28.1921 24.3417 28.1921C23.8705 28.1921 23.8818 28.2179 23.8818 27.1467V26.2468L23.7008 26.0646C23.3324 25.6935 23.3317 25.1335 23.699 24.7635C23.7976 24.6643 23.9463 24.562 24.0295 24.5364C24.2706 24.4621 24.6497 24.5115 24.847 24.643Z" fill="#0C1A2C"/>
</svg>
